<svg
      aria-hidden="true"
      style="position: absolute; width: 0; height: 0"
      width="24"
      height="24"
      xmlns="http://www.w3.org/2000/svg"
      overflow="hidden"
    >
      <defs>

<symbol id="dots-vertical" viewBox="0 0 24 24"><path d="M10 6a2 2 0 1 1 0-4 2 2 0 0 1 0 4ZM10 12a2 2 0 1 1 0-4 2 2 0 0 1 0 4ZM10 18a2 2 0 1 1 0-4 2 2 0 0 1 0 4Z" fill="currentcolor"/></symbol>
    <symbol id="duplicate" viewBox="0 0 24 24">
      <path
        d="M7 9a2 2 0 0 1 2-2h6a2 2 0 0 1 2 2v6a2 2 0 0 1-2 2H9a2 2 0 0 1-2-2V9Z"
        fill="currentcolor"
      />
      <path
        d="M5 3a2 2 0 0 0-2 2v6a2 2 0 0 0 2 2V5h8a2 2 0 0 0-2-2H5Z"
        fill="currentcolor"
      />
    </symbol>
    <symbol id="credit-card" viewBox="0 0 24 24">
      <path
        d="M4 4a2 2 0 0 0-2 2v1h16V6a2 2 0 0 0-2-2H4Z"
        fill="currentcolor"
      />
      <path
        fill-rule="evenodd"
        clip-rule="evenodd"
        d="M18 9H2v5a2 2 0 0 0 2 2h12a2 2 0 0 0 2-2V9ZM4 13a1 1 0 0 1 1-1h1a1 1 0 1 1 0 2H5a1 1 0 0 1-1-1Zm5-1a1 1 0 1 0 0 2h1a1 1 0 1 0 0-2H9Z"
        fill="currentcolor"
      />
    </symbol>
    <symbol id="arrow-down" viewBox="0 0 24 24">
      <path
        fill-rule="evenodd"
        clip-rule="evenodd"
        d="M16.707 10.293a1 1 0 0 1 0 1.414l-6 6a1 1 0 0 1-1.414 0l-6-6a1 1 0 1 1 1.414-1.414L9 14.586V3a1 1 0 0 1 2 0v11.586l4.293-4.293a1 1 0 0 1 1.414 0Z"
        fill="currentcolor"
      />
    </symbol>
    <symbol id="exclamation-circle" viewBox="0 0 24 24">
      <path
        fill-rule="evenodd"
        clip-rule="evenodd"
        d="M18 10a8 8 0 1 1-16 0 8 8 0 0 1 16 0Zm-7 4a1 1 0 1 1-2 0 1 1 0 0 1 2 0Zm-1-9a1 1 0 0 0-1 1v4a1 1 0 1 0 2 0V6a1 1 0 0 0-1-1Z"
        fill="currentcolor"
      />
    </symbol>
    <symbol id="upload" viewBox="0 0 24 24">
      <path
        fill-rule="evenodd"
        clip-rule="evenodd"
        d="M3 17a1 1 0 0 1 1-1h12a1 1 0 1 1 0 2H4a1 1 0 0 1-1-1ZM6.293 6.707a1 1 0 0 1 0-1.414l3-3a1 1 0 0 1 1.414 0l3 3a1 1 0 0 1-1.414 1.414L11 5.414V13a1 1 0 1 1-2 0V5.414L7.707 6.707a1 1 0 0 1-1.414 0Z"
        fill="currentcolor"
      />
    </symbol>
    <symbol id="currency-euro" viewBox="0 0 24 24">
      <path
        fill-rule="evenodd"
        clip-rule="evenodd"
        d="M10 18a8 8 0 1 0 0-16 8 8 0 0 0 0 16ZM8.736 6.979C9.208 6.193 9.696 6 10 6c.304 0 .792.193 1.264.979a1 1 0 0 0 1.715-1.029C12.279 4.784 11.232 4 10 4s-2.279.784-2.979 1.95c-.285.475-.507 1-.67 1.55H6a1 1 0 0 0 0 2h.013a9.358 9.358 0 0 0 0 1H6a1 1 0 1 0 0 2h.351c.163.55.385 1.075.67 1.55C7.721 15.216 8.768 16 10 16s2.279-.784 2.979-1.95a1 1 0 1 0-1.715-1.029c-.472.786-.96.979-1.264.979-.304 0-.792-.193-1.264-.979a4.265 4.265 0 0 1-.264-.521H10a1 1 0 1 0 0-2H8.017a7.36 7.36 0 0 1 0-1H10a1 1 0 1 0 0-2H8.472c.08-.185.167-.36.264-.521Z"
        fill="currentcolor"
      />
    </symbol>
    <symbol id="ticket" viewBox="0 0 24 24">
      <path
        d="M2 6a2 2 0 0 1 2-2h12a2 2 0 0 1 2 2v2a2 2 0 1 0 0 4v2a2 2 0 0 1-2 2H4a2 2 0 0 1-2-2v-2a2 2 0 1 0 0-4V6Z"
        fill="currentcolor"
      />
    </symbol>
    <symbol id="moon" viewBox="0 0 24 24">
      <path
        d="M17.293 13.293A8 8 0 0 1 6.707 2.707a8.002 8.002 0 1 0 10.586 10.586Z"
        fill="currentcolor"
      />
    </symbol>
    <symbol id="user-remove" viewBox="0 0 24 24">
      <path
        d="M11 6a3 3 0 1 1-6 0 3 3 0 0 1 6 0ZM14 17a6 6 0 0 0-12 0h12ZM13 8a1 1 0 1 0 0 2h4a1 1 0 1 0 0-2h-4Z"
        fill="currentcolor"
      />
    </symbol>
    <symbol id="briefcase" viewBox="0 0 24 24">
      <path
        fill-rule="evenodd"
        clip-rule="evenodd"
        d="M6 6V5a3 3 0 0 1 3-3h2a3 3 0 0 1 3 3v1h2a2 2 0 0 1 2 2v3.57A22.952 22.952 0 0 1 10 13a22.95 22.95 0 0 1-8-1.43V8a2 2 0 0 1 2-2h2Zm2-1a1 1 0 0 1 1-1h2a1 1 0 0 1 1 1v1H8V5Zm1 5a1 1 0 0 1 1-1h.01a1 1 0 1 1 0 2H10a1 1 0 0 1-1-1Z"
        fill="currentcolor"
      />
      <path
        d="M2 13.692V16a2 2 0 0 0 2 2h12a2 2 0 0 0 2-2v-2.308A24.974 24.974 0 0 1 10 15c-2.796 0-5.487-.46-8-1.308Z"
        fill="currentcolor"
      />
    </symbol>
    <symbol id="user-group" viewBox="0 0 24 24">
      <path
        d="M13 6a3 3 0 1 1-6 0 3 3 0 0 1 6 0ZM18 8a2 2 0 1 1-4 0 2 2 0 0 1 4 0ZM14 15a4 4 0 0 0-8 0v3h8v-3ZM6 8a2 2 0 1 1-4 0 2 2 0 0 1 4 0ZM16 18v-3a5.972 5.972 0 0 0-.75-2.906A3.005 3.005 0 0 1 19 15v3h-3ZM4.75 12.094A5.973 5.973 0 0 0 4 15v3H1v-3a3 3 0 0 1 3.75-2.906Z"
        fill="currentcolor"
      />
    </symbol>
    <symbol id="archive" viewBox="0 0 24 24">
      <path d="M4 3a2 2 0 1 0 0 4h12a2 2 0 1 0 0-4H4Z" fill="currentcolor" />
      <path
        fill-rule="evenodd"
        clip-rule="evenodd"
        d="M3 8h14v7a2 2 0 0 1-2 2H5a2 2 0 0 1-2-2V8Zm5 3a1 1 0 0 1 1-1h2a1 1 0 1 1 0 2H9a1 1 0 0 1-1-1Z"
        fill="currentcolor"
      />
    </symbol>
    <symbol id="menu-alt-3" viewBox="0 0 24 24">
      <path
        fill-rule="evenodd"
        clip-rule="evenodd"
        d="M3 5a1 1 0 0 1 1-1h12a1 1 0 1 1 0 2H4a1 1 0 0 1-1-1ZM3 10a1 1 0 0 1 1-1h12a1 1 0 1 1 0 2H4a1 1 0 0 1-1-1ZM9 15a1 1 0 0 1 1-1h6a1 1 0 1 1 0 2h-6a1 1 0 0 1-1-1Z"
        fill="currentcolor"
      />
    </symbol>
    <symbol id="share" viewBox="0 0 24 24">
      <path
        d="M15 8a3 3 0 1 0-2.977-2.63l-4.94 2.47a3 3 0 1 0 0 4.319l4.94 2.47a3 3 0 1 0 .895-1.789l-4.94-2.47a3.027 3.027 0 0 0 0-.74l4.94-2.47C13.456 7.68 14.19 8 15 8Z"
        fill="currentcolor"
      />
    </symbol>
    <symbol id="lock-closed" viewBox="0 0 24 24">
      <path
        fill-rule="evenodd"
        clip-rule="evenodd"
        d="M5 9V7a5 5 0 0 1 10 0v2a2 2 0 0 1 2 2v5a2 2 0 0 1-2 2H5a2 2 0 0 1-2-2v-5a2 2 0 0 1 2-2Zm8-2v2H7V7a3 3 0 0 1 6 0Z"
        fill="currentcolor"
      />
    </symbol>
    <symbol id="arrow-left" viewBox="0 0 24 24">
      <path
        fill-rule="evenodd"
        clip-rule="evenodd"
        d="M9.707 16.707a1 1 0 0 1-1.414 0l-6-6a1 1 0 0 1 0-1.414l6-6a1 1 0 0 1 1.414 1.414L5.414 9H17a1 1 0 1 1 0 2H5.414l4.293 4.293a1 1 0 0 1 0 1.414Z"
        fill="currentcolor"
      />
    </symbol>
    <symbol id="plus-circle" viewBox="0 0 24 24">
      <path
        fill-rule="evenodd"
        clip-rule="evenodd"
        d="M10 18a8 8 0 1 0 0-16 8 8 0 0 0 0 16Zm1-11a1 1 0 1 0-2 0v2H7a1 1 0 1 0 0 2h2v2a1 1 0 1 0 2 0v-2h2a1 1 0 1 0 0-2h-2V7Z"
        fill="currentcolor"
      />
    </symbol>
    <symbol id="download" viewBox="0 0 24 24">
      <path
        fill-rule="evenodd"
        clip-rule="evenodd"
        d="M3 17a1 1 0 0 1 1-1h12a1 1 0 1 1 0 2H4a1 1 0 0 1-1-1Zm3.293-7.707a1 1 0 0 1 1.414 0L9 10.586V3a1 1 0 1 1 2 0v7.586l1.293-1.293a1 1 0 1 1 1.414 1.414l-3 3a1 1 0 0 1-1.414 0l-3-3a1 1 0 0 1 0-1.414Z"
        fill="currentcolor"
      />
    </symbol>
    <symbol id="currency-pound" viewBox="0 0 24 24">
      <path
        fill-rule="evenodd"
        clip-rule="evenodd"
        d="M10 18a8 8 0 1 0 0-16 8 8 0 0 0 0 16Zm1-14a3 3 0 0 0-3 3v2H7a1 1 0 0 0 0 2h1v1a1 1 0 0 1-1 1 1 1 0 1 0 0 2h6a1 1 0 1 0 0-2H9.83c.11-.313.17-.65.17-1v-1h1a1 1 0 1 0 0-2h-1V7a1 1 0 1 1 2 0 1 1 0 1 0 2 0 3 3 0 0 0-3-3Z"
        fill="currentcolor"
      />
    </symbol>
    <symbol id="lock-open" viewBox="0 0 24 24">
      <path
        d="M10 2a5 5 0 0 0-5 5v2a2 2 0 0 0-2 2v5a2 2 0 0 0 2 2h10a2 2 0 0 0 2-2v-5a2 2 0 0 0-2-2H7V7a3 3 0 0 1 5.905-.75 1 1 0 0 0 1.937-.5A5.002 5.002 0 0 0 10 2Z"
        fill="currentcolor"
      />
    </symbol>
    <symbol id="icon-currency-dollar" viewBox="0 0 24 24">
      <path d="M8 2a1 1 0 0 0 0 2h2a1 1 0 1 0 0-2H8Z" fill="currentcolor" />
      <path
        d="M3 5a2 2 0 0 1 2-2 3 3 0 0 0 3 3h2a3 3 0 0 0 3-3 2 2 0 0 1 2 2v6h-4.586l1.293-1.293a1 1 0 0 0-1.414-1.414l-3 3a1 1 0 0 0 0 1.414l3 3a1 1 0 0 0 1.414-1.414L10.414 13H15v3a2 2 0 0 1-2 2H5a2 2 0 0 1-2-2V5ZM15 11h2a1 1 0 1 1 0 2h-2v-2Z"
        fill="currentcolor"
      />
    </symbol>
    <symbol id="arrow-narrow-up" viewBox="0 0 24 24">
      <path
        fill-rule="evenodd"
        clip-rule="evenodd"
        d="M5.293 7.707a1 1 0 0 1 0-1.414l4-4a1 1 0 0 1 1.414 0l4 4a1 1 0 0 1-1.414 1.414L11 5.414V17a1 1 0 1 1-2 0V5.414L6.707 7.707a1 1 0 0 1-1.414 0Z"
        fill="currentcolor"
      />
    </symbol>
    <symbol id="shield-check" viewBox="0 0 24 24">
      <path
        fill-rule="evenodd"
        clip-rule="evenodd"
        d="M2.166 4.999A11.954 11.954 0 0 0 10 1.944 11.954 11.954 0 0 0 17.834 5c.11.65.166 1.32.166 2 0 5.226-3.34 9.67-8 11.318C5.34 16.67 2 12.225 2 7c0-.682.057-1.35.166-2.001Zm11.541 3.708a1 1 0 0 0-1.414-1.414L9 10.586 7.707 9.293a1 1 0 0 0-1.414 1.414l2 2a1 1 0 0 0 1.414 0l4-4Z"
        fill="currentcolor"
      />
    </symbol>
    <symbol id="office-building" viewBox="0 0 24 24">
      <path
        fill-rule="evenodd"
        clip-rule="evenodd"
        d="M4 4a2 2 0 0 1 2-2h8a2 2 0 0 1 2 2v12a1 1 0 1 1 0 2h-3a1 1 0 0 1-1-1v-2a1 1 0 0 0-1-1H9a1 1 0 0 0-1 1v2a1 1 0 0 1-1 1H4a1 1 0 1 1 0-2V4Zm3 1h2v2H7V5Zm2 4H7v2h2V9Zm2-4h2v2h-2V5Zm2 4h-2v2h2V9Z"
        fill="currentcolor"
      />
    </symbol>
    <symbol id="clock" viewBox="0 0 24 24">
      <path
        fill-rule="evenodd"
        clip-rule="evenodd"
        d="M10 18a8 8 0 1 0 0-16 8 8 0 0 0 0 16Zm1-12a1 1 0 1 0-2 0v4a1 1 0 0 0 .293.707l2.828 2.829a1 1 0 1 0 1.415-1.415L11 9.586V6Z"
        fill="currentcolor"
      />
    </symbol>
    <symbol id="menu-alt-4" viewBox="0 0 24 24">
      <path
        fill-rule="evenodd"
        clip-rule="evenodd"
        d="M3 7a1 1 0 0 1 1-1h12a1 1 0 1 1 0 2H4a1 1 0 0 1-1-1ZM3 13a1 1 0 0 1 1-1h12a1 1 0 1 1 0 2H4a1 1 0 0 1-1-1Z"
        fill="currentcolor"
      />
    </symbol>
    <symbol id="chart-pie" viewBox="0 0 24 24">
      <path d="M2 10a8 8 0 0 1 8-8v8h8a8 8 0 1 1-16 0Z" fill="currentcolor" />
      <path
        d="M12 2.252A8.014 8.014 0 0 1 17.748 8H12V2.252Z"
        fill="currentcolor"
      />
    </symbol>
    <symbol id="heart" viewBox="0 0 24 24">
      <path
        fill-rule="evenodd"
        clip-rule="evenodd"
        d="M3.172 5.172a4 4 0 0 1 5.656 0L10 6.343l1.172-1.171a4 4 0 1 1 5.656 5.656L10 17.657l-6.828-6.829a4 4 0 0 1 0-5.656Z"
        fill="currentcolor"
      />
    </symbol>
    <symbol id="trending-up" viewBox="0 0 24 24">
      <path
        fill-rule="evenodd"
        clip-rule="evenodd"
        d="M12 7a1 1 0 1 1 0-2h5a1 1 0 0 1 1 1v5a1 1 0 1 1-2 0V8.414l-4.293 4.293a1 1 0 0 1-1.414 0L8 10.414l-4.293 4.293a1 1 0 0 1-1.414-1.414l5-5a1 1 0 0 1 1.414 0L11 10.586 14.586 7H12Z"
        fill="currentcolor"
      />
    </symbol>
    <symbol id="arrow-circle-right" viewBox="0 0 24 24">
      <path
        fill-rule="evenodd"
        clip-rule="evenodd"
        d="M10 18a8 8 0 1 0 0-16 8 8 0 0 0 0 16Zm3.707-8.707-3-3a1 1 0 0 0-1.414 1.414L10.586 9H7a1 1 0 1 0 0 2h3.586l-1.293 1.293a1 1 0 1 0 1.414 1.414l3-3a1 1 0 0 0 0-1.414Z"
        fill="currentcolor"
      />
    </symbol>
    <symbol id="minus-circle" viewBox="0 0 24 24">
      <path
        fill-rule="evenodd"
        clip-rule="evenodd"
        d="M10 18a8 8 0 1 0 0-16 8 8 0 0 0 0 16ZM7 9a1 1 0 0 0 0 2h6a1 1 0 1 0 0-2H7Z"
        fill="currentcolor"
      />
    </symbol>
    <symbol id="view-list" viewBox="0 0 24 24">
      <path
        fill-rule="evenodd"
        clip-rule="evenodd"
        d="M3 4a1 1 0 0 1 1-1h12a1 1 0 1 1 0 2H4a1 1 0 0 1-1-1Zm0 4a1 1 0 0 1 1-1h12a1 1 0 1 1 0 2H4a1 1 0 0 1-1-1Zm0 4a1 1 0 0 1 1-1h12a1 1 0 1 1 0 2H4a1 1 0 0 1-1-1Zm0 4a1 1 0 0 1 1-1h12a1 1 0 1 1 0 2H4a1 1 0 0 1-1-1Z"
        fill="currentcolor"
      />
    </symbol>
    <symbol id="currency-rupee" viewBox="0 0 24 24">
      <path
        fill-rule="evenodd"
        clip-rule="evenodd"
        d="M10 18a8 8 0 1 0 0-16 8 8 0 0 0 0 16ZM7 5a1 1 0 1 0 0 2h1a2 2 0 0 1 1.732 1H7a1 1 0 1 0 0 2h2.732A2 2 0 0 1 8 11H7a1 1 0 0 0-.707 1.707l3 3a1 1 0 0 0 1.414-1.414l-1.483-1.484A4.008 4.008 0 0 0 11.874 10H13a1 1 0 1 0 0-2h-1.126a3.976 3.976 0 0 0-.41-1H13a1 1 0 1 0 0-2H7Z"
        fill="currentcolor"
      />
    </symbol>
    <symbol id="dots-circle-horizontal" viewBox="0 0 24 24">
      <path
        fill-rule="evenodd"
        clip-rule="evenodd"
        d="M10 18a8 8 0 1 0 0-16 8 8 0 0 0 0 16ZM7 9H5v2h2V9Zm8 0h-2v2h2V9ZM9 9h2v2H9V9Z"
        fill="currentcolor"
      />
    </symbol>
    <symbol id="annotation" viewBox="0 0 24 24">
      <path
        fill-rule="evenodd"
        clip-rule="evenodd"
        d="M18 13V5a2 2 0 0 0-2-2H4a2 2 0 0 0-2 2v8a2 2 0 0 0 2 2h3l3 3 3-3h3a2 2 0 0 0 2-2ZM5 7a1 1 0 0 1 1-1h8a1 1 0 1 1 0 2H6a1 1 0 0 1-1-1Zm1 3a1 1 0 1 0 0 2h3a1 1 0 1 0 0-2H6Z"
        fill="currentcolor"
      />
    </symbol>
    <symbol id="arrow-narrow-right" viewBox="0 0 24 24">
      <path
        fill-rule="evenodd"
        clip-rule="evenodd"
        d="M12.293 5.293a1 1 0 0 1 1.414 0l4 4a1 1 0 0 1 0 1.414l-4 4a1 1 0 0 1-1.414-1.414L14.586 11H3a1 1 0 1 1 0-2h11.586l-2.293-2.293a1 1 0 0 1 0-1.414Z"
        fill="currentcolor"
      />
    </symbol>
    <symbol id="shield-exclamation" viewBox="0 0 24 24">
      <path
        fill-rule="evenodd"
        clip-rule="evenodd"
        d="M10 1.944A11.954 11.954 0 0 1 2.166 5c-.11.65-.166 1.32-.166 2 0 5.226 3.34 9.67 8 11.318C14.66 16.67 18 12.225 18 7c0-.682-.057-1.35-.166-2.001A11.954 11.954 0 0 1 10 1.944ZM11 14a1 1 0 1 1-2 0 1 1 0 0 1 2 0Zm0-7a1 1 0 1 0-2 0v3a1 1 0 1 0 2 0V7Z"
        fill="currentcolor"
      />
    </symbol>
    <symbol id="scale" viewBox="0 0 24 24">
      <path
        fill-rule="evenodd"
        clip-rule="evenodd"
        d="M10 2a1 1 0 0 1 1 1v1.323l3.954 1.582 1.599-.8a1 1 0 0 1 .894 1.79l-1.233.616 1.738 5.42a1 1 0 0 1-.285 1.05A3.989 3.989 0 0 1 15 15a3.989 3.989 0 0 1-2.667-1.019 1 1 0 0 1-.285-1.05l1.715-5.349L11 6.477V16h2a1 1 0 1 1 0 2H7a1 1 0 1 1 0-2h2V6.477L6.237 7.582l1.715 5.349a1 1 0 0 1-.285 1.05A3.989 3.989 0 0 1 5 15a3.989 3.989 0 0 1-2.667-1.019 1 1 0 0 1-.285-1.05l1.738-5.42-1.233-.617a1 1 0 0 1 .894-1.788l1.599.799L9 4.323V3a1 1 0 0 1 1-1Zm-5 8.274-.818 2.552c.25.112.526.174.818.174.292 0 .569-.062.818-.174L5 10.274Zm10 0-.818 2.552c.25.112.526.174.818.174.292 0 .569-.062.818-.174L15 10.274Z"
        fill="currentcolor"
      />
    </symbol>
    <symbol id="photograph" viewBox="0 0 24 24">
      <path
        fill-rule="evenodd"
        clip-rule="evenodd"
        d="M4 3a2 2 0 0 0-2 2v10a2 2 0 0 0 2 2h12a2 2 0 0 0 2-2V5a2 2 0 0 0-2-2H4Zm12 12H4l4-8 3 6 2-4 3 6Z"
        fill="currentcolor"
      />
    </symbol>
    <symbol id="switch-vertical" viewBox="0 0 24 24">
      <path
        d="M5 12a1 1 0 1 0 2 0V6.414l1.293 1.293a1 1 0 0 0 1.414-1.414l-3-3a1 1 0 0 0-1.414 0l-3 3a1 1 0 0 0 1.414 1.414L5 6.414V12ZM15 8a1 1 0 1 0-2 0v5.586l-1.293-1.293a1 1 0 0 0-1.414 1.414l3 3a1 1 0 0 0 1.414 0l3-3a1 1 0 0 0-1.414-1.414L15 13.586V8Z"
        fill="currentcolor"
      />
    </symbol>
    <symbol id="document" viewBox="0 0 24 24">
      <path
        fill-rule="evenodd"
        clip-rule="evenodd"
        d="M4 4a2 2 0 0 1 2-2h4.586A2 2 0 0 1 12 2.586L15.414 6A2 2 0 0 1 16 7.414V16a2 2 0 0 1-2 2H6a2 2 0 0 1-2-2V4Z"
        fill="currentcolor"
      />
    </symbol>
    <symbol id="globe" viewBox="0 0 24 24">
      <path
        fill-rule="evenodd"
        clip-rule="evenodd"
        d="M10 18a8 8 0 1 0 0-16 8 8 0 0 0 0 16ZM4.332 8.027a6.012 6.012 0 0 1 1.912-2.706C6.512 5.73 6.974 6 7.5 6A1.5 1.5 0 0 1 9 7.5V8a2 2 0 0 0 4 0 2 2 0 0 1 1.523-1.943A5.977 5.977 0 0 1 16 10c0 .34-.028.675-.083 1H15a2 2 0 0 0-2 2v2.197A5.973 5.973 0 0 1 10 16v-2a2 2 0 0 0-2-2 2 2 0 0 1-2-2 2 2 0 0 0-1.668-1.973Z"
        fill="currentcolor"
      />
    </symbol>
    <symbol id="trending-down" viewBox="0 0 24 24">
      <path
        fill-rule="evenodd"
        clip-rule="evenodd"
        d="M12 13a1 1 0 1 0 0 2h5a1 1 0 0 0 1-1V9a1 1 0 1 0-2 0v2.586l-4.293-4.293a1 1 0 0 0-1.414 0L8 9.586 3.707 5.293a1 1 0 0 0-1.414 1.414l5 5a1 1 0 0 0 1.414 0L11 9.414 14.586 13H12Z"
        fill="currentcolor"
      />
    </symbol>
    <symbol id="arrow-circle-down" viewBox="0 0 24 24">
      <path
        fill-rule="evenodd"
        clip-rule="evenodd"
        d="M10 18a8 8 0 1 0 0-16 8 8 0 0 0 0 16Zm1-11a1 1 0 1 0-2 0v3.586L7.707 9.293a1 1 0 0 0-1.414 1.414l3 3a1 1 0 0 0 1.414 0l3-3a1 1 0 0 0-1.414-1.414L11 10.586V7Z"
        fill="currentcolor"
      />
    </symbol>
    <symbol id="user-circle" viewBox="0 0 24 24">
      <path
        fill-rule="evenodd"
        clip-rule="evenodd"
        d="M18 10a8 8 0 1 1-16 0 8 8 0 0 1 16 0Zm-6-3a2 2 0 1 1-4 0 2 2 0 0 1 4 0Zm-2 4a5 5 0 0 0-4.546 2.916A5.986 5.986 0 0 0 10 16a5.986 5.986 0 0 0 4.546-2.084A5 5 0 0 0 10 11Z"
        fill="currentcolor"
      />
    </symbol>
    <symbol id="view-boards" viewBox="0 0 24 24">
      <path
        d="M2 4a1 1 0 0 1 1-1h2a1 1 0 0 1 1 1v12a1 1 0 0 1-1 1H3a1 1 0 0 1-1-1V4ZM8 4a1 1 0 0 1 1-1h2a1 1 0 0 1 1 1v12a1 1 0 0 1-1 1H9a1 1 0 0 1-1-1V4ZM15 3a1 1 0 0 0-1 1v12a1 1 0 0 0 1 1h2a1 1 0 0 0 1-1V4a1 1 0 0 0-1-1h-2Z"
        fill="currentcolor"
      />
    </symbol>
    <symbol id="chevron-down" viewBox="0 0 24 24">
      <path
        fill-rule="evenodd"
        clip-rule="evenodd"
        d="M5.293 7.293a1 1 0 0 1 1.414 0L10 10.586l3.293-3.293a1 1 0 1 1 1.414 1.414l-4 4a1 1 0 0 1-1.414 0l-4-4a1 1 0 0 1 0-1.414Z"
        fill="currentcolor"
      />
    </symbol>
    <symbol id="hashtag" viewBox="0 0 24 24">
      <path
        fill-rule="evenodd"
        clip-rule="evenodd"
        d="M9.243 3.03a1 1 0 0 1 .727 1.213L9.53 6h2.94l.56-2.243a1 1 0 1 1 1.94.486L14.53 6H17a1 1 0 1 1 0 2h-2.97l-1 4H15a1 1 0 1 1 0 2h-2.47l-.56 2.242a1 1 0 1 1-1.94-.485L10.47 14H7.53l-.56 2.242a1 1 0 1 1-1.94-.485L5.47 14H3a1 1 0 1 1 0-2h2.97l1-4H5a1 1 0 1 1 0-2h2.47l.56-2.243a1 1 0 0 1 1.213-.727ZM9.03 8l-1 4h2.938l1-4H9.031Z"
        fill="currentcolor"
      />
    </symbol>
    <symbol id="flag" viewBox="0 0 24 24">
      <path
        fill-rule="evenodd"
        clip-rule="evenodd"
        d="M3 6a3 3 0 0 1 3-3h10a1 1 0 0 1 .8 1.6L14.25 8l2.55 3.4A1 1 0 0 1 16 13H6a1 1 0 0 0-1 1v3a1 1 0 1 1-2 0V6Z"
        fill="currentcolor"
      />
    </symbol>
    <symbol id="arrow-narrow-down" viewBox="0 0 24 24">
      <path
        fill-rule="evenodd"
        clip-rule="evenodd"
        d="M14.707 12.293a1 1 0 0 1 0 1.414l-4 4a1 1 0 0 1-1.414 0l-4-4a1 1 0 1 1 1.414-1.414L9 14.586V3a1 1 0 0 1 2 0v11.586l2.293-2.293a1 1 0 0 1 1.414 0Z"
        fill="currentcolor"
      />
    </symbol>
    <symbol id="cog" viewBox="0 0 24 24">
      <path
        fill-rule="evenodd"
        clip-rule="evenodd"
        d="M11.49 3.17c-.38-1.56-2.6-1.56-2.98 0a1.532 1.532 0 0 1-2.286.948c-1.372-.836-2.942.734-2.106 2.106.54.886.061 2.042-.947 2.287-1.561.379-1.561 2.6 0 2.978a1.532 1.532 0 0 1 .947 2.287c-.836 1.372.734 2.942 2.106 2.106a1.532 1.532 0 0 1 2.287.947c.379 1.561 2.6 1.561 2.978 0a1.533 1.533 0 0 1 2.287-.947c1.372.836 2.942-.734 2.106-2.106a1.533 1.533 0 0 1 .947-2.287c1.561-.379 1.561-2.6 0-2.978a1.532 1.532 0 0 1-.947-2.287c.836-1.372-.734-2.942-2.106-2.106a1.532 1.532 0 0 1-2.287-.947ZM10 13a3 3 0 1 0 0-6 3 3 0 0 0 0 6Z"
        fill="currentcolor"
      />
    </symbol>
    <symbol id="pencil-alt" viewBox="0 0 24 24">
      <path
        d="M17.414 2.586a2 2 0 0 0-2.828 0L7 10.172V13h2.828l7.586-7.586a2 2 0 0 0 0-2.828Z"
        fill="currentcolor"
      />
      <path
        fill-rule="evenodd"
        clip-rule="evenodd"
        d="M2 6a2 2 0 0 1 2-2h4a1 1 0 0 1 0 2H4v10h10v-4a1 1 0 1 1 2 0v4a2 2 0 0 1-2 2H4a2 2 0 0 1-2-2V6Z"
        fill="currentcolor"
      />
    </symbol>
    <symbol id="tag" viewBox="0 0 24 24">
      <path
        fill-rule="evenodd"
        clip-rule="evenodd"
        d="M17.707 9.293a1 1 0 0 1 0 1.414l-7 7a1 1 0 0 1-1.414 0l-7-7A.997.997 0 0 1 2 10V5a3 3 0 0 1 3-3h5c.256 0 .512.098.707.293l7 7ZM5 6a1 1 0 1 0 0-2 1 1 0 0 0 0 2Z"
        fill="currentcolor"
      />
    </symbol>
    <symbol id="switch-horizontal" viewBox="0 0 24 24">
      <path
        d="M8 5a1 1 0 1 0 0 2h5.586l-1.293 1.293a1 1 0 0 0 1.414 1.414l3-3a1 1 0 0 0 0-1.414l-3-3a1 1 0 1 0-1.414 1.414L13.586 5H8ZM12 15a1 1 0 1 0 0-2H6.414l1.293-1.293a1 1 0 1 0-1.414-1.414l-3 3a1 1 0 0 0 0 1.414l3 3a1 1 0 0 0 1.414-1.414L6.414 15H12Z"
        fill="currentcolor"
      />
    </symbol>
    <symbol id="document-download" viewBox="0 0 24 24">
      <path
        fill-rule="evenodd"
        clip-rule="evenodd"
        d="M6 2a2 2 0 0 0-2 2v12a2 2 0 0 0 2 2h8a2 2 0 0 0 2-2V7.414A2 2 0 0 0 15.414 6L12 2.586A2 2 0 0 0 10.586 2H6Zm5 6a1 1 0 1 0-2 0v3.586l-1.293-1.293a1 1 0 1 0-1.414 1.414l3 3a1 1 0 0 0 1.414 0l3-3a1 1 0 0 0-1.414-1.414L11 11.586V8Z"
        fill="currentcolor"
      />
    </symbol>
    <symbol id="volume-up" viewBox="0 0 24 24">
      <path
        fill-rule="evenodd"
        clip-rule="evenodd"
        d="M9.383 3.076A1 1 0 0 1 10 4v12a1 1 0 0 1-1.707.707L4.586 13H2a1 1 0 0 1-1-1V8a1 1 0 0 1 1-1h2.586l3.707-3.707a1 1 0 0 1 1.09-.217ZM14.657 2.929a1 1 0 0 1 1.414 0A9.972 9.972 0 0 1 19 10a9.972 9.972 0 0 1-2.929 7.071 1 1 0 0 1-1.414-1.414A7.971 7.971 0 0 0 17 10c0-2.21-.894-4.208-2.343-5.657a1 1 0 0 1 0-1.414Zm-2.829 2.828a1 1 0 0 1 1.415 0A5.983 5.983 0 0 1 15 10a5.984 5.984 0 0 1-1.757 4.243 1 1 0 0 1-1.415-1.415A3.984 3.984 0 0 0 13 10a3.983 3.983 0 0 0-1.172-2.828 1 1 0 0 1 0-1.415Z"
        fill="currentcolor"
      />
    </symbol>
    <symbol id="filter" viewBox="0 0 24 24">
      <path
        fill-rule="evenodd"
        clip-rule="evenodd"
        d="M3 3a1 1 0 0 1 1-1h12a1 1 0 0 1 1 1v3a1 1 0 0 1-.293.707L12 11.414V15a1 1 0 0 1-.293.707l-2 2A1 1 0 0 1 8 17v-5.586L3.293 6.707A1 1 0 0 1 3 6V3Z"
        fill="currentcolor"
      />
    </symbol>
    <symbol id="arrow-circle-left" viewBox="0 0 24 24">
      <path
        fill-rule="evenodd"
        clip-rule="evenodd"
        d="M10 18a8 8 0 1 0 0-16 8 8 0 0 0 0 16Zm.707-10.293a1 1 0 0 0-1.414-1.414l-3 3a1 1 0 0 0 0 1.414l3 3a1 1 0 0 0 1.414-1.414L9.414 11H13a1 1 0 1 0 0-2H9.414l1.293-1.293Z"
        fill="currentcolor"
      />
    </symbol>
    <symbol id="zoom-in" viewBox="0 0 24 24">
      <path
        d="M5 8a1 1 0 0 1 1-1h1V6a1 1 0 0 1 2 0v1h1a1 1 0 1 1 0 2H9v1a1 1 0 1 1-2 0V9H6a1 1 0 0 1-1-1Z"
        fill="currentcolor"
      />
      <path
        fill-rule="evenodd"
        clip-rule="evenodd"
        d="M2 8a6 6 0 1 1 10.89 3.476l4.817 4.817a1 1 0 0 1-1.414 1.414l-4.816-4.816A6 6 0 0 1 2 8Zm6-4a4 4 0 1 0 0 8 4 4 0 0 0 0-8Z"
        fill="currentcolor"
      />
    </symbol>
    <symbol id="paper-clip" viewBox="0 0 24 24">
      <path
        fill-rule="evenodd"
        clip-rule="evenodd"
        d="M8 4a3 3 0 0 0-3 3v4a5 5 0 0 0 10 0V7a1 1 0 1 1 2 0v4a7 7 0 1 1-14 0V7a5 5 0 0 1 10 0v4a3 3 0 1 1-6 0V7a1 1 0 0 1 2 0v4a1 1 0 1 0 2 0V7a3 3 0 0 0-3-3Z"
        fill="currentcolor"
      />
    </symbol>
    <symbol id="chevron-right" viewBox="0 0 24 24">
      <path
        fill-rule="evenodd"
        clip-rule="evenodd"
        d="M7.293 14.707a1 1 0 0 1 0-1.414L10.586 10 7.293 6.707a1 1 0 0 1 1.414-1.414l4 4a1 1 0 0 1 0 1.414l-4 4a1 1 0 0 1-1.414 0Z"
        fill="currentcolor"
      />
    </symbol>
    <symbol id="qrcode" viewBox="0 0 24 24">
      <path
        fill-rule="evenodd"
        clip-rule="evenodd"
        d="M3 4a1 1 0 0 1 1-1h3a1 1 0 0 1 1 1v3a1 1 0 0 1-1 1H4a1 1 0 0 1-1-1V4Zm2 2V5h1v1H5ZM3 13a1 1 0 0 1 1-1h3a1 1 0 0 1 1 1v3a1 1 0 0 1-1 1H4a1 1 0 0 1-1-1v-3Zm2 2v-1h1v1H5ZM13 3a1 1 0 0 0-1 1v3a1 1 0 0 0 1 1h3a1 1 0 0 0 1-1V4a1 1 0 0 0-1-1h-3Zm1 2v1h1V5h-1Z"
        fill="currentcolor"
      />
      <path
        d="M11 4a1 1 0 1 0-2 0v1a1 1 0 0 0 2 0V4ZM10 7a1 1 0 0 1 1 1v1h2a1 1 0 1 1 0 2h-3a1 1 0 0 1-1-1V8a1 1 0 0 1 1-1ZM16 9a1 1 0 1 0 0 2 1 1 0 0 0 0-2ZM9 13a1 1 0 0 1 1-1h1a1 1 0 1 1 0 2v2a1 1 0 1 1-2 0v-3ZM7 11a1 1 0 1 0 0-2H4a1 1 0 1 0 0 2h3ZM17 13a1 1 0 0 1-1 1h-2a1 1 0 1 1 0-2h2a1 1 0 0 1 1 1ZM16 17a1 1 0 1 0 0-2h-3a1 1 0 1 0 0 2h3Z"
        fill="currentcolor"
      />
    </symbol>
    <symbol id="collection" viewBox="0 0 24 24">
      <path
        d="M7 3a1 1 0 0 0 0 2h6a1 1 0 1 0 0-2H7ZM4 7a1 1 0 0 1 1-1h10a1 1 0 1 1 0 2H5a1 1 0 0 1-1-1ZM2 11a2 2 0 0 1 2-2h12a2 2 0 0 1 2 2v4a2 2 0 0 1-2 2H4a2 2 0 0 1-2-2v-4Z"
        fill="currentcolor"
      />
    </symbol>
    <symbol id="arrow-narrow-left" viewBox="0 0 24 24">
      <path
        fill-rule="evenodd"
        clip-rule="evenodd"
        d="M7.707 14.707a1 1 0 0 1-1.414 0l-4-4a1 1 0 0 1 0-1.414l4-4a1 1 0 0 1 1.414 1.414L5.414 9H17a1 1 0 1 1 0 2H5.414l2.293 2.293a1 1 0 0 1 0 1.414Z"
        fill="currentcolor"
      />
    </symbol>
    <symbol id="check" viewBox="0 0 24 24">
      <path
        fill-rule="evenodd"
        clip-rule="evenodd"
        d="M16.707 5.293a1 1 0 0 1 0 1.414l-8 8a1 1 0 0 1-1.414 0l-4-4a1 1 0 0 1 1.414-1.414L8 12.586l7.293-7.293a1 1 0 0 1 1.414 0Z"
        fill="currentcolor"
      />
    </symbol>
    <symbol id="pencil" viewBox="0 0 24 24">
      <path
        d="M13.586 3.586a2 2 0 1 1 2.828 2.828l-.793.793-2.828-2.828.793-.793ZM11.379 5.793 3 14.172V17h2.828l8.38-8.379-2.83-2.828Z"
        fill="currentcolor"
      />
    </symbol>
    <symbol id="phone" viewBox="0 0 24 24">
      <path
        d="M2 3a1 1 0 0 1 1-1h2.153a1 1 0 0 1 .986.836l.74 4.435a1 1 0 0 1-.54 1.06l-1.548.773a11.037 11.037 0 0 0 6.105 6.105l.774-1.548a1 1 0 0 1 1.059-.54l4.435.74a1 1 0 0 1 .836.986V17a1 1 0 0 1-1 1h-2C7.82 18 2 12.18 2 5V3Z"
        fill="currentcolor"
      />
    </symbol>
    <symbol id="x" viewBox="0 0 24 24">
      <path
        fill-rule="evenodd"
        clip-rule="evenodd"
        d="M4.293 4.293a1 1 0 0 1 1.414 0L10 8.586l4.293-4.293a1 1 0 1 1 1.414 1.414L11.414 10l4.293 4.293a1 1 0 0 1-1.414 1.414L10 11.414l-4.293 4.293a1 1 0 0 1-1.414-1.414L8.586 10 4.293 5.707a1 1 0 0 1 0-1.414Z"
        fill="currentcolor"
      />
    </symbol>
    <symbol id="document-add" viewBox="0 0 24 24">
      <path
        fill-rule="evenodd"
        clip-rule="evenodd"
        d="M6 2a2 2 0 0 0-2 2v12a2 2 0 0 0 2 2h8a2 2 0 0 0 2-2V7.414A2 2 0 0 0 15.414 6L12 2.586A2 2 0 0 0 10.586 2H6Zm5 6a1 1 0 1 0-2 0v2H7a1 1 0 1 0 0 2h2v2a1 1 0 1 0 2 0v-2h2a1 1 0 1 0 0-2h-2V8Z"
        fill="currentcolor"
      />
    </symbol>
    <symbol id="volume-off" viewBox="0 0 24 24">
      <path
        fill-rule="evenodd"
        clip-rule="evenodd"
        d="M9.383 3.076A1 1 0 0 1 10 4v12a1 1 0 0 1-1.707.707L4.586 13H2a1 1 0 0 1-1-1V8a1 1 0 0 1 1-1h2.586l3.707-3.707a1 1 0 0 1 1.09-.217ZM12.293 7.293a1 1 0 0 1 1.414 0L15 8.586l1.293-1.293a1 1 0 1 1 1.414 1.414L16.414 10l1.293 1.293a1 1 0 0 1-1.414 1.414L15 11.414l-1.293 1.293a1 1 0 0 1-1.414-1.414L13.586 10l-1.293-1.293a1 1 0 0 1 0-1.414Z"
        fill="currentcolor"
      />
    </symbol>
    <symbol id="at-symbol" viewBox="0 0 24 24">
      <path
        fill-rule="evenodd"
        clip-rule="evenodd"
        d="M14.243 5.757a6 6 0 1 0-.986 9.284 1 1 0 1 1 1.087 1.678A8 8 0 1 1 18 10a3 3 0 0 1-4.8 2.401A4 4 0 1 1 14 10a1 1 0 1 0 2 0c0-1.537-.586-3.07-1.757-4.243ZM12 10a2 2 0 1 0-4 0 2 2 0 0 0 4 0Z"
        fill="currentcolor"
      />
    </symbol>
    <symbol id="arrow-circle-up" viewBox="0 0 24 24">
      <path
        fill-rule="evenodd"
        clip-rule="evenodd"
        d="M10 18a8 8 0 1 0 0-16 8 8 0 0 0 0 16Zm3.707-8.707-3-3a1 1 0 0 0-1.414 0l-3 3a1 1 0 0 0 1.414 1.414L9 9.414V13a1 1 0 1 0 2 0V9.414l1.293 1.293a1 1 0 0 0 1.414-1.414Z"
        fill="currentcolor"
      />
    </symbol>
    <symbol id="zoom-out" viewBox="0 0 24 24">
      <path
        fill-rule="evenodd"
        clip-rule="evenodd"
        d="M8 4a4 4 0 1 0 0 8 4 4 0 0 0 0-8ZM2 8a6 6 0 1 1 10.89 3.476l4.817 4.817a1 1 0 0 1-1.414 1.414l-4.816-4.816A6 6 0 0 1 2 8Z"
        fill="currentcolor"
      />
      <path
        fill-rule="evenodd"
        clip-rule="evenodd"
        d="M5 8a1 1 0 0 1 1-1h4a1 1 0 1 1 0 2H6a1 1 0 0 1-1-1Z"
        fill="currentcolor"
      />
    </symbol>
    <symbol id="emoji-happy" viewBox="0 0 24 24">
      <path
        fill-rule="evenodd"
        clip-rule="evenodd"
        d="M10 18a8 8 0 1 0 0-16 8 8 0 0 0 0 16ZM7 9a1 1 0 1 0 0-2 1 1 0 0 0 0 2Zm7-1a1 1 0 1 1-2 0 1 1 0 0 1 2 0Zm-.464 5.535a1 1 0 1 0-1.415-1.414 3 3 0 0 1-4.242 0 1 1 0 0 0-1.415 1.414 5 5 0 0 0 7.072 0Z"
        fill="currentcolor"
      />
    </symbol>
    <symbol id="chevron-up" viewBox="0 0 24 24">
      <path
        fill-rule="evenodd"
        clip-rule="evenodd"
        d="M14.707 12.707a1 1 0 0 1-1.414 0L10 9.414l-3.293 3.293a1 1 0 0 1-1.414-1.414l4-4a1 1 0 0 1 1.414 0l4 4a1 1 0 0 1 0 1.414Z"
        fill="currentcolor"
      />
    </symbol>
    <symbol id="clipboard-check" viewBox="0 0 24 24">
      <path d="M9 2a1 1 0 0 0 0 2h2a1 1 0 1 0 0-2H9Z" fill="currentcolor" />
      <path
        fill-rule="evenodd"
        clip-rule="evenodd"
        d="M4 5a2 2 0 0 1 2-2 3 3 0 0 0 3 3h2a3 3 0 0 0 3-3 2 2 0 0 1 2 2v11a2 2 0 0 1-2 2H6a2 2 0 0 1-2-2V5Zm9.707 5.707a1 1 0 0 0-1.414-1.414L9 12.586l-1.293-1.293a1 1 0 0 0-1.414 1.414l2 2a1 1 0 0 0 1.414 0l4-4Z"
        fill="currentcolor"
      />
    </symbol>
    <symbol id="book-open" viewBox="0 0 24 24">
      <path
        d="M9 4.804A7.968 7.968 0 0 0 5.5 4c-1.255 0-2.443.29-3.5.804v10A7.969 7.969 0 0 1 5.5 14c1.669 0 3.218.51 4.5 1.385A7.962 7.962 0 0 1 14.5 14c1.255 0 2.443.29 3.5.804v-10A7.968 7.968 0 0 0 14.5 4c-1.255 0-2.443.29-3.5.804V12a1 1 0 1 1-2 0V4.804Z"
        fill="currentcolor"
      />
    </symbol>
    <symbol id="template" viewBox="0 0 24 24">
      <path
        d="M3 4a1 1 0 0 1 1-1h12a1 1 0 0 1 1 1v2a1 1 0 0 1-1 1H4a1 1 0 0 1-1-1V4ZM3 10a1 1 0 0 1 1-1h6a1 1 0 0 1 1 1v6a1 1 0 0 1-1 1H4a1 1 0 0 1-1-1v-6ZM14 9a1 1 0 0 0-1 1v6a1 1 0 0 0 1 1h2a1 1 0 0 0 1-1v-6a1 1 0 0 0-1-1h-2Z"
        fill="currentcolor"
      />
    </symbol>
    <symbol id="translate" viewBox="0 0 24 24">
      <path
        fill-rule="evenodd"
        clip-rule="evenodd"
        d="M7 2a1 1 0 0 1 1 1v1h3a1 1 0 1 1 0 2H9.578a18.87 18.87 0 0 1-1.724 4.78c.29.354.596.696.914 1.026a1 1 0 1 1-1.44 1.389c-.188-.196-.373-.396-.554-.6a19.098 19.098 0 0 1-3.107 3.567 1 1 0 0 1-1.334-1.49 17.087 17.087 0 0 0 3.13-3.733 18.992 18.992 0 0 1-1.487-2.494 1 1 0 1 1 1.79-.89c.234.47.489.928.764 1.372.417-.934.752-1.913.997-2.927H3a1 1 0 1 1 0-2h3V3a1 1 0 0 1 1-1Zm6 6a1 1 0 0 1 .894.553l2.991 5.982a.869.869 0 0 1 .02.037l.99 1.98a1 1 0 1 1-1.79.895L15.383 16h-4.764l-.724 1.447a1 1 0 1 1-1.788-.894l.99-1.98.019-.038 2.99-5.982A1 1 0 0 1 13 8Zm-1.382 6h2.764L13 11.236 11.618 14Z"
        fill="currentcolor"
      />
    </symbol>
    <symbol id="eye" viewBox="0 0 24 24">
      <path d="M10 12a2 2 0 1 0 0-4 2 2 0 0 0 0 4Z" fill="currentcolor" />
      <path
        fill-rule="evenodd"
        clip-rule="evenodd"
        d="M.458 10C1.732 5.943 5.522 3 10 3s8.268 2.943 9.542 7c-1.274 4.057-5.064 7-9.542 7S1.732 14.057.458 10ZM14 10a4 4 0 1 1-8 0 4 4 0 0 1 8 0Z"
        fill="currentcolor"
      />
    </symbol>
    <symbol id="phone-outgoing" viewBox="0 0 24 24">
      <path
        d="M17.924 2.617a.997.997 0 0 0-.215-.322l-.004-.004A.997.997 0 0 0 17 2h-4a1 1 0 1 0 0 2h1.586l-3.293 3.293a1 1 0 0 0 1.414 1.414L16 5.414V7a1 1 0 1 0 2 0V3a.997.997 0 0 0-.076-.383Z"
        fill="currentcolor"
      />
      <path
        d="M2 3a1 1 0 0 1 1-1h2.153a1 1 0 0 1 .986.836l.74 4.435a1 1 0 0 1-.54 1.06l-1.548.773a11.037 11.037 0 0 0 6.105 6.105l.774-1.548a1 1 0 0 1 1.059-.54l4.435.74a1 1 0 0 1 .836.986V17a1 1 0 0 1-1 1h-2C7.82 18 2 12.18 2 5V3Z"
        fill="currentcolor"
      />
    </symbol>
    <symbol id="plus" viewBox="0 0 24 24">
      <path
        fill-rule="evenodd"
        clip-rule="evenodd"
        d="M10 3a1 1 0 0 1 1 1v5h5a1 1 0 1 1 0 2h-5v5a1 1 0 1 1-2 0v-5H4a1 1 0 1 1 0-2h5V4a1 1 0 0 1 1-1Z"
        fill="currentcolor"
      />
    </symbol>
    <symbol id="document-remove" viewBox="0 0 24 24">
      <path
        fill-rule="evenodd"
        clip-rule="evenodd"
        d="M6 2a2 2 0 0 0-2 2v12a2 2 0 0 0 2 2h8a2 2 0 0 0 2-2V7.414A2 2 0 0 0 15.414 6L12 2.586A2 2 0 0 0 10.586 2H6Zm1 8a1 1 0 1 0 0 2h6a1 1 0 1 0 0-2H7Z"
        fill="currentcolor"
      />
    </symbol>
    <symbol id="adjustments" viewBox="0 0 24 24">
      <path
        d="M5 4a1 1 0 0 0-2 0v7.268a2 2 0 0 0 0 3.464V16a1 1 0 1 0 2 0v-1.268a2 2 0 0 0 0-3.464V4ZM11 4a1 1 0 1 0-2 0v1.268a2 2 0 0 0 0 3.464V16a1 1 0 1 0 2 0V8.732a2 2 0 0 0 0-3.464V4ZM16 3a1 1 0 0 1 1 1v7.268a2 2 0 0 1 0 3.464V16a1 1 0 1 1-2 0v-1.268a2 2 0 0 1 0-3.464V4a1 1 0 0 1 1-1Z"
        fill="currentcolor"
      />
    </symbol>
    <symbol id="trash" viewBox="0 0 24 24">
      <path
        fill-rule="evenodd"
        clip-rule="evenodd"
        d="M9 2a1 1 0 0 0-.894.553L7.382 4H4a1 1 0 0 0 0 2v10a2 2 0 0 0 2 2h8a2 2 0 0 0 2-2V6a1 1 0 1 0 0-2h-3.382l-.724-1.447A1 1 0 0 0 11 2H9ZM7 8a1 1 0 0 1 2 0v6a1 1 0 1 1-2 0V8Zm5-1a1 1 0 0 0-1 1v6a1 1 0 1 0 2 0V8a1 1 0 0 0-1-1Z"
        fill="currentcolor"
      />
    </symbol>
    <symbol id="sort-ascending" viewBox="0 0 24 24">
      <path
        d="M3 3a1 1 0 0 0 0 2h11a1 1 0 1 0 0-2H3ZM3 7a1 1 0 0 0 0 2h5a1 1 0 0 0 0-2H3ZM3 11a1 1 0 1 0 0 2h4a1 1 0 1 0 0-2H3ZM13 16a1 1 0 1 0 2 0v-5.586l1.293 1.293a1 1 0 0 0 1.414-1.414l-3-3a1 1 0 0 0-1.414 0l-3 3a1 1 0 1 0 1.414 1.414L13 10.414V16Z"
        fill="currentcolor"
      />
    </symbol>
    <symbol id="search" viewBox="0 0 24 24">
      <path
        fill-rule="evenodd"
        clip-rule="evenodd"
        d="M8 4a4 4 0 1 0 0 8 4 4 0 0 0 0-8ZM2 8a6 6 0 1 1 10.89 3.476l4.817 4.817a1 1 0 0 1-1.414 1.414l-4.816-4.816A6 6 0 0 1 2 8Z"
        fill="currentcolor"
      />
    </symbol>
    <symbol id="emoji-sad" viewBox="0 0 24 24">
      <path
        fill-rule="evenodd"
        clip-rule="evenodd"
        d="M10 18a8 8 0 1 0 0-16 8 8 0 0 0 0 16ZM7 9a1 1 0 1 0 0-2 1 1 0 0 0 0 2Zm7-1a1 1 0 1 1-2 0 1 1 0 0 1 2 0Zm-7.536 5.879a1 1 0 0 0 1.415 0 3 3 0 0 1 4.242 0 1 1 0 0 0 1.415-1.415 5 5 0 0 0-7.072 0 1 1 0 0 0 0 1.415Z"
        fill="currentcolor"
      />
    </symbol>
    <symbol id="chevron-left" viewBox="0 0 24 24">
      <path
        fill-rule="evenodd"
        clip-rule="evenodd"
        d="M12.707 5.293a1 1 0 0 1 0 1.414L9.414 10l3.293 3.293a1 1 0 0 1-1.414 1.414l-4-4a1 1 0 0 1 0-1.414l4-4a1 1 0 0 1 1.414 0Z"
        fill="currentcolor"
      />
    </symbol>
    <symbol id="clipboard-list" viewBox="0 0 24 24">
      <path d="M9 2a1 1 0 0 0 0 2h2a1 1 0 1 0 0-2H9Z" fill="currentcolor" />
      <path
        fill-rule="evenodd"
        clip-rule="evenodd"
        d="M4 5a2 2 0 0 1 2-2 3 3 0 0 0 3 3h2a3 3 0 0 0 3-3 2 2 0 0 1 2 2v11a2 2 0 0 1-2 2H6a2 2 0 0 1-2-2V5Zm3 4a1 1 0 0 0 0 2h.01a1 1 0 1 0 0-2H7Zm3 0a1 1 0 0 0 0 2h3a1 1 0 1 0 0-2h-3Zm-3 4a1 1 0 1 0 0 2h.01a1 1 0 1 0 0-2H7Zm3 0a1 1 0 1 0 0 2h3a1 1 0 1 0 0-2h-3Z"
        fill="currentcolor"
      />
    </symbol>
    <symbol id="code" viewBox="0 0 24 24">
      <path
        fill-rule="evenodd"
        clip-rule="evenodd"
        d="M12.316 3.051a1 1 0 0 1 .633 1.265l-4 12a1 1 0 1 1-1.898-.632l4-12a1 1 0 0 1 1.265-.633ZM5.707 6.293a1 1 0 0 1 0 1.414L3.414 10l2.293 2.293a1 1 0 1 1-1.414 1.414l-3-3a1 1 0 0 1 0-1.414l3-3a1 1 0 0 1 1.414 0Zm8.586 0a1 1 0 0 1 1.414 0l3 3a1 1 0 0 1 0 1.414l-3 3a1 1 0 1 1-1.414-1.414L16.586 10l-2.293-2.293a1 1 0 0 1 0-1.414Z"
        fill="currentcolor"
      />
    </symbol>
    <symbol id="reply" viewBox="0 0 24 24">
      <path
        fill-rule="evenodd"
        clip-rule="evenodd"
        d="M7.707 3.293a1 1 0 0 1 0 1.414L5.414 7H11a7 7 0 0 1 7 7v2a1 1 0 1 1-2 0v-2a5 5 0 0 0-5-5H5.414l2.293 2.293a1 1 0 1 1-1.414 1.414l-4-4a1 1 0 0 1 0-1.414l4-4a1 1 0 0 1 1.414 0Z"
        fill="currentcolor"
      />
    </symbol>
    <symbol id="cash" viewBox="0 0 24 24">
      <path
        d="M4 4a2 2 0 0 0-2 2v4a2 2 0 0 0 2 2V6h10a2 2 0 0 0-2-2H4Z"
        fill="currentcolor"
      />
      <path
        fill-rule="evenodd"
        clip-rule="evenodd"
        d="M6 10a2 2 0 0 1 2-2h8a2 2 0 0 1 2 2v4a2 2 0 0 1-2 2H8a2 2 0 0 1-2-2v-4Zm6 4a2 2 0 1 0 0-4 2 2 0 0 0 0 4Z"
        fill="currentcolor"
      />
    </symbol>
    <symbol id="bookmark" viewBox="0 0 24 24">
      <path
        d="M5 4a2 2 0 0 1 2-2h6a2 2 0 0 1 2 2v14l-5-2.5L5 18V4Z"
        fill="currentcolor"
      />
    </symbol>
    <symbol id="phone-incoming" viewBox="0 0 24 24">
      <path
        d="m14.414 7 3.293-3.293a1 1 0 0 0-1.414-1.414L13 5.586V4a1 1 0 1 0-2 0v4.003a.996.996 0 0 0 .617.921A.997.997 0 0 0 12 9h4a1 1 0 1 0 0-2h-1.586Z"
        fill="currentcolor"
      />
      <path
        d="M2 3a1 1 0 0 1 1-1h2.153a1 1 0 0 1 .986.836l.74 4.435a1 1 0 0 1-.54 1.06l-1.548.773a11.037 11.037 0 0 0 6.105 6.105l.774-1.548a1 1 0 0 1 1.059-.54l4.435.74a1 1 0 0 1 .836.986V17a1 1 0 0 1-1 1h-2C7.82 18 2 12.18 2 5V3Z"
        fill="currentcolor"
      />
    </symbol>
    <symbol id="refresh" viewBox="0 0 24 24">
      <path
        fill-rule="evenodd"
        clip-rule="evenodd"
        d="M4 2a1 1 0 0 1 1 1v2.101a7.002 7.002 0 0 1 11.601 2.566 1 1 0 1 1-1.885.666A5.002 5.002 0 0 0 5.999 7H9a1 1 0 0 1 0 2H4a1 1 0 0 1-1-1V3a1 1 0 0 1 1-1Zm.008 9.057a1 1 0 0 1 1.276.61A5.002 5.002 0 0 0 14.001 13H11a1 1 0 1 1 0-2h5a1 1 0 0 1 1 1v5a1 1 0 1 1-2 0v-2.101a7.002 7.002 0 0 1-11.601-2.566 1 1 0 0 1 .61-1.276Z"
        fill="currentcolor"
      />
    </symbol>
    <symbol id="calendar" viewBox="0 0 24 24">
      <path
        fill-rule="evenodd"
        clip-rule="evenodd"
        d="M6 2a1 1 0 0 0-1 1v1H4a2 2 0 0 0-2 2v10a2 2 0 0 0 2 2h12a2 2 0 0 0 2-2V6a2 2 0 0 0-2-2h-1V3a1 1 0 1 0-2 0v1H7V3a1 1 0 0 0-1-1Zm0 5a1 1 0 0 0 0 2h8a1 1 0 1 0 0-2H6Z"
        fill="currentcolor"
      />
    </symbol>
    <symbol id="link" viewBox="0 0 24 24">
      <path
        d="M12.586 4.586a2 2 0 1 1 2.828 2.828l-3 3a2 2 0 0 1-2.828 0 1 1 0 0 0-1.414 1.414 4 4 0 0 0 5.656 0l3-3a4 4 0 0 0-5.656-5.656l-1.5 1.5a1 1 0 1 0 1.414 1.414l1.5-1.5Z"
        fill="currentcolor"
      />
      <path
        d="M7.586 9.586a2 2 0 0 1 2.828 0 1 1 0 1 0 1.414-1.414 4 4 0 0 0-5.656 0l-3 3a4 4 0 1 0 5.656 5.656l1.5-1.5a1 1 0 1 0-1.414-1.414l-1.5 1.5a2 2 0 1 1-2.828-2.828l3-3Z"
        fill="currentcolor"
      />
    </symbol>
    <symbol id="information-circle" viewBox="0 0 24 24">
      <path
        fill-rule="evenodd"
        clip-rule="evenodd"
        d="M18 10a8 8 0 1 1-16 0 8 8 0 0 1 16 0Zm-7-4a1 1 0 1 1-2 0 1 1 0 0 1 2 0ZM9 9a1 1 0 0 0 0 2v3a1 1 0 0 0 1 1h1a1 1 0 1 0 0-2v-3a1 1 0 0 0-1-1H9Z"
        fill="currentcolor"
      />
    </symbol>
    <symbol id="sort-descending" viewBox="0 0 24 24">
      <path
        d="M3 3a1 1 0 0 0 0 2h11a1 1 0 1 0 0-2H3ZM3 7a1 1 0 0 0 0 2h7a1 1 0 1 0 0-2H3ZM3 11a1 1 0 1 0 0 2h4a1 1 0 1 0 0-2H3ZM15 8a1 1 0 1 0-2 0v5.586l-1.293-1.293a1 1 0 0 0-1.414 1.414l3 3a1 1 0 0 0 1.414 0l3-3a1 1 0 0 0-1.414-1.414L15 13.586V8Z"
        fill="currentcolor"
      />
    </symbol>
    <symbol id="user-add" viewBox="0 0 24 24">
      <path
        d="M8 9a3 3 0 1 0 0-6 3 3 0 0 0 0 6ZM8 11a6 6 0 0 1 6 6H2a6 6 0 0 1 6-6ZM16 7a1 1 0 1 0-2 0v1h-1a1 1 0 1 0 0 2h1v1a1 1 0 1 0 2 0v-1h1a1 1 0 1 0 0-2h-1V7Z"
        fill="currentcolor"
      />
    </symbol>
    <symbol id="printer" viewBox="0 0 24 24">
      <path
        fill-rule="evenodd"
        clip-rule="evenodd"
        d="M5 4v3H4a2 2 0 0 0-2 2v3a2 2 0 0 0 2 2h1v2a2 2 0 0 0 2 2h6a2 2 0 0 0 2-2v-2h1a2 2 0 0 0 2-2V9a2 2 0 0 0-2-2h-1V4a2 2 0 0 0-2-2H7a2 2 0 0 0-2 2Zm8 0H7v3h6V4Zm0 8H7v4h6v-4Z"
        fill="currentcolor"
      />
    </symbol>
    <symbol id="selector" viewBox="0 0 24 24">
      <path
        fill-rule="evenodd"
        clip-rule="evenodd"
        d="M10 3a1 1 0 0 1 .707.293l3 3a1 1 0 0 1-1.414 1.414L10 5.414 7.707 7.707a1 1 0 0 1-1.414-1.414l3-3A1 1 0 0 1 10 3Zm-3.707 9.293a1 1 0 0 1 1.414 0L10 14.586l2.293-2.293a1 1 0 0 1 1.414 1.414l-3 3a1 1 0 0 1-1.414 0l-3-3a1 1 0 0 1 0-1.414Z"
        fill="currentcolor"
      />
    </symbol>
    <symbol id="clipboard-copy" viewBox="0 0 24 24">
      <path
        d="M8 3a1 1 0 0 1 1-1h2a1 1 0 1 1 0 2H9a1 1 0 0 1-1-1Z"
        fill="currentcolor"
      />
      <path
        d="M6 3a2 2 0 0 0-2 2v11a2 2 0 0 0 2 2h8a2 2 0 0 0 2-2V5a2 2 0 0 0-2-2 3 3 0 0 1-3 3H9a3 3 0 0 1-3-3Z"
        fill="currentcolor"
      />
    </symbol>
    <symbol id="lightning-bolt" viewBox="0 0 24 24">
      <path
        fill-rule="evenodd"
        clip-rule="evenodd"
        d="M11.3 1.046A1 1 0 0 1 12 2v5h4a1 1 0 0 1 .82 1.574l-7 10A1 1 0 0 1 8 18v-5H4a1 1 0 0 1-.82-1.573l7-10a1 1 0 0 1 1.12-.38Z"
        fill="currentcolor"
      />
    </symbol>
    <symbol id="light-bulb" viewBox="0 0 24 24">
      <path
        d="M11 3a1 1 0 1 0-2 0v1a1 1 0 1 0 2 0V3ZM15.657 5.757a1 1 0 0 0-1.414-1.414l-.707.707a1 1 0 0 0 1.414 1.414l.707-.707ZM18 10a1 1 0 0 1-1 1h-1a1 1 0 1 1 0-2h1a1 1 0 0 1 1 1ZM5.05 6.464A1 1 0 1 0 6.464 5.05l-.707-.707a1 1 0 0 0-1.414 1.414l.707.707ZM5 10a1 1 0 0 1-1 1H3a1 1 0 1 1 0-2h1a1 1 0 0 1 1 1ZM8 16v-1h4v1a2 2 0 1 1-4 0ZM12 14c.015-.34.208-.646.477-.859a4 4 0 1 0-4.954 0c.27.213.462.519.476.859h4.002Z"
        fill="currentcolor"
      />
    </symbol>
    <symbol id="chat-alt" viewBox="0 0 24 24">
      <path
        fill-rule="evenodd"
        clip-rule="evenodd"
        d="M18 5v8a2 2 0 0 1-2 2h-5l-5 4v-4H4a2 2 0 0 1-2-2V5a2 2 0 0 1 2-2h12a2 2 0 0 1 2 2ZM7 8H5v2h2V8Zm2 0h2v2H9V8Zm6 0h-2v2h2V8Z"
        fill="currentcolor"
      />
    </symbol>
    <symbol id="logout" viewBox="0 0 24 24">
      <path
        fill-rule="evenodd"
        clip-rule="evenodd"
        d="M3 3a1 1 0 0 1 1 1v12a1 1 0 1 1-2 0V4a1 1 0 0 1 1-1Zm7.707 3.293a1 1 0 0 1 0 1.414L9.414 9H17a1 1 0 1 1 0 2H9.414l1.293 1.293a1 1 0 0 1-1.414 1.414l-3-3a1 1 0 0 1 0-1.414l3-3a1 1 0 0 1 1.414 0Z"
        fill="currentcolor"
      />
    </symbol>
    <symbol id="key" viewBox="0 0 24 24">
      <path
        fill-rule="evenodd"
        clip-rule="evenodd"
        d="M18 8a6 6 0 0 1-7.743 5.743L8 16H6v2H2v-4l4.257-4.257A6 6 0 1 1 18 8Zm-6-4a1 1 0 1 0 0 2 2 2 0 0 1 2 2 1 1 0 1 0 2 0 4 4 0 0 0-4-4Z"
        fill="currentcolor"
      />
    </symbol>
    <symbol id="ban" viewBox="0 0 24 24">
      <path
        fill-rule="evenodd"
        clip-rule="evenodd"
        d="M18 10a8 8 0 1 1-16 0 8 8 0 0 1 16 0Zm-4.523 4.89A6 6 0 0 1 5.11 6.524l8.367 8.368Zm1.414-1.414L6.524 5.11a6 6 0 0 1 8.367 8.367Z"
        fill="currentcolor"
      />
    </symbol>
    <symbol id="download" viewBox="0 0 24 24">
      <path
        d="M3 1a1 1 0 0 0 0 2h1.22l.305 1.222a.997.997 0 0 0 .01.042l1.358 5.43-.893.892C3.74 11.846 4.632 14 6.414 14H15a1 1 0 0 0 0-2H6.414l1-1H14a1 1 0 0 0 .894-.553l3-6A1 1 0 0 0 17 3H6.28l-.31-1.243A1 1 0 0 0 5 1H3ZM16 16.5a1.5 1.5 0 1 1-3 0 1.5 1.5 0 0 1 3 0ZM6.5 18a1.5 1.5 0 1 0 0-3 1.5 1.5 0 0 0 0 3Z"
        fill="currentcolor"
      />
    </symbol>
    <symbol id="microphone" viewBox="0 0 24 24">
      <path d="M7 4a3 3 0 0 1 6 0v4a3 3 0 1 1-6 0V4Z" fill="currentcolor" />
      <path
        d="M11 14.93A7.001 7.001 0 0 0 17 8a1 1 0 1 0-2 0A5 5 0 0 1 5 8a1 1 0 0 0-2 0 7.001 7.001 0 0 0 6 6.93V17H6a1 1 0 1 0 0 2h8a1 1 0 1 0 0-2h-3v-2.07Z"
        fill="currentcolor"
      />
    </symbol>
    <symbol id="badge-check" viewBox="0 0 24 24">
      <path
        fill-rule="evenodd"
        clip-rule="evenodd"
        d="M6.267 3.455a3.066 3.066 0 0 0 1.745-.723 3.066 3.066 0 0 1 3.976 0 3.066 3.066 0 0 0 1.745.723 3.066 3.066 0 0 1 2.812 2.812c.051.643.304 1.254.723 1.745a3.066 3.066 0 0 1 0 3.976 3.066 3.066 0 0 0-.723 1.745 3.066 3.066 0 0 1-2.812 2.812 3.066 3.066 0 0 0-1.745.723 3.066 3.066 0 0 1-3.976 0 3.066 3.066 0 0 0-1.745-.723 3.066 3.066 0 0 1-2.812-2.812 3.066 3.066 0 0 0-.723-1.745 3.066 3.066 0 0 1 0-3.976 3.066 3.066 0 0 0 .723-1.745 3.066 3.066 0 0 1 2.812-2.812Zm7.44 5.252a1 1 0 0 0-1.414-1.414L9 10.586 7.707 9.293a1 1 0 0 0-1.414 1.414l2 2a1 1 0 0 0 1.414 0l4-4Z"
        fill="currentcolor"
      />
    </symbol>
    <symbol id="cursor-click" viewBox="0 0 24 24">
      <path
        d="M6.672 1.912a1 1 0 1 0-1.932.517l.259.966a1 1 0 1 0 1.932-.517l-.26-.966ZM2.43 4.74a1 1 0 1 0-.518 1.932l.966.259a1 1 0 0 0 .517-1.932L2.43 4.74ZM11.243 4.172a1 1 0 0 0-1.415-1.415l-.707.708a1 1 0 1 0 1.415 1.414l.707-.707ZM4.172 11.243l.707-.707A1 1 0 0 0 3.465 9.12l-.708.707a1 1 0 0 0 1.415 1.415ZM7.372 6.072a1 1 0 0 0-1.3 1.3l4 10a1 1 0 0 0 1.823.075l1.38-2.759 3.018 3.02a1 1 0 0 0 1.414-1.415l-3.019-3.019 2.76-1.38a1 1 0 0 0-.076-1.822l-10-4Z"
        fill="currentcolor"
      />
    </symbol>
    <symbol id="speakerphone" viewBox="0 0 24 24">
      <path
        d="M18 3a1 1 0 0 0-1.447-.894L8.763 6H5a3 3 0 0 0 0 6h.28l1.771 5.316A1 1 0 0 0 8 18h1a1 1 0 0 0 1-1v-4.382l6.553 3.276A1 1 0 0 0 18 15V3Z"
        fill="currentcolor"
      />
    </symbol>
    <symbol id="document-report" viewBox="0 0 24 24">
      <path
        fill-rule="evenodd"
        clip-rule="evenodd"
        d="M6 2a2 2 0 0 0-2 2v12a2 2 0 0 0 2 2h8a2 2 0 0 0 2-2V7.414A2 2 0 0 0 15.414 6L12 2.586A2 2 0 0 0 10.586 2H6Zm2 10a1 1 0 1 0-2 0v3a1 1 0 1 0 2 0v-3Zm2-3a1 1 0 0 1 1 1v5a1 1 0 1 1-2 0v-5a1 1 0 0 1 1-1Zm4-1a1 1 0 1 0-2 0v7a1 1 0 1 0 2 0V8Z"
        fill="currentcolor"
      />
    </symbol>
    <symbol id="desktop-computer" viewBox="0 0 24 24">
      <path
        fill-rule="evenodd"
        clip-rule="evenodd"
        d="M3 5a2 2 0 0 1 2-2h10a2 2 0 0 1 2 2v8a2 2 0 0 1-2 2h-2.22l.123.489.804.804A1 1 0 0 1 13 18H7a1 1 0 0 1-.707-1.707l.804-.804L7.22 15H5a2 2 0 0 1-2-2V5Zm5.771 7H5V5h10v7H8.771Z"
        fill="currentcolor"
      />
    </symbol>
    <symbol id="support" viewBox="0 0 24 24">
      <path
        fill-rule="evenodd"
        clip-rule="evenodd"
        d="M18 10a8 8 0 1 1-16 0 8 8 0 0 1 16 0Zm-2 0c0 .993-.241 1.929-.668 2.754l-1.524-1.525a3.997 3.997 0 0 0 .078-2.183l1.562-1.562C15.802 8.249 16 9.1 16 10Zm-5.165 3.913 1.58 1.58A5.98 5.98 0 0 1 10 16a5.978 5.978 0 0 1-2.516-.552l1.562-1.562a4.007 4.007 0 0 0 1.789.027Zm-4.677-2.796a4.002 4.002 0 0 1-.041-2.08l-.08.079-1.53-1.532A5.98 5.98 0 0 0 4 10c0 .954.223 1.856.619 2.656l1.54-1.539Zm1.088-6.45A5.974 5.974 0 0 1 10 4c.954 0 1.856.223 2.656.619l-1.539 1.54a4.002 4.002 0 0 0-2.346.033L7.246 4.668ZM12 10a2 2 0 1 1-4 0 2 2 0 0 1 4 0Z"
        fill="currentcolor"
      />
    </symbol>
    <symbol id="newspaper" viewBox="0 0 24 24">
      <path
        fill-rule="evenodd"
        clip-rule="evenodd"
        d="M2 5a2 2 0 0 1 2-2h8a2 2 0 0 1 2 2v10a2 2 0 0 0 2 2H4a2 2 0 0 1-2-2V5Zm3 1h6v4H5V6Zm6 6H5v2h6v-2Z"
        fill="currentcolor"
      />
      <path
        d="M15 7h1a2 2 0 0 1 2 2v5.5a1.5 1.5 0 0 1-3 0V7Z"
        fill="currentcolor"
      />
    </symbol>
    <symbol id="bookmark-alt" viewBox="0 0 24 24">
      <path
        fill-rule="evenodd"
        clip-rule="evenodd"
        d="M3 5a2 2 0 0 1 2-2h10a2 2 0 0 1 2 2v10a2 2 0 0 1-2 2H5a2 2 0 0 1-2-2V5Zm11 1H6v8l4-2 4 2V6Z"
        fill="currentcolor"
      />
    </symbol>
    <symbol id="view-grid-add" viewBox="0 0 24 24">
      <path
        d="M5 3a2 2 0 0 0-2 2v2a2 2 0 0 0 2 2h2a2 2 0 0 0 2-2V5a2 2 0 0 0-2-2H5ZM5 11a2 2 0 0 0-2 2v2a2 2 0 0 0 2 2h2a2 2 0 0 0 2-2v-2a2 2 0 0 0-2-2H5ZM11 5a2 2 0 0 1 2-2h2a2 2 0 0 1 2 2v2a2 2 0 0 1-2 2h-2a2 2 0 0 1-2-2V5ZM14 11a1 1 0 0 1 1 1v1h1a1 1 0 1 1 0 2h-1v1a1 1 0 1 1-2 0v-1h-1a1 1 0 1 1 0-2h1v-1a1 1 0 0 1 1-1Z"
        fill="currentcolor"
      />
    </symbol>
    <symbol id="md-library" viewBox="0 0 24 24">
      <path
        fill-rule="evenodd"
        clip-rule="evenodd"
        d="M10.496 2.132a1 1 0 0 0-.992 0l-7 4A1 1 0 0 0 3 8v7a1 1 0 1 0 0 2h14a1 1 0 1 0 0-2V8a1 1 0 0 0 .496-1.868l-7-4ZM6 9a1 1 0 0 0-1 1v3a1 1 0 1 0 2 0v-3a1 1 0 0 0-1-1Zm3 1a1 1 0 0 1 2 0v3a1 1 0 1 1-2 0v-3Zm5-1a1 1 0 0 0-1 1v3a1 1 0 1 0 2 0v-3a1 1 0 0 0-1-1Z"
        fill="currentcolor"
      />
    </symbol>
    <symbol id="play" viewBox="0 0 24 24">
      <path
        fill-rule="evenodd"
        clip-rule="evenodd"
        d="M10 18a8 8 0 1 0 0-16 8 8 0 0 0 0 16ZM9.555 7.168A1 1 0 0 0 8 8v4a1 1 0 0 0 1.555.832l3-2a1 1 0 0 0 0-1.664l-3-2Z"
        fill="currentcolor"
      />
    </symbol>
    <symbol id="pause" viewBox="0 0 24 24">
      <path
        fill-rule="evenodd"
        clip-rule="evenodd"
        d="M18 10a8 8 0 1 1-16 0 8 8 0 0 1 16 0ZM7 8a1 1 0 0 1 2 0v4a1 1 0 1 1-2 0V8Zm5-1a1 1 0 0 0-1 1v4a1 1 0 1 0 2 0V8a1 1 0 0 0-1-1Z"
        fill="currentcolor"
      />
    </symbol>
    <symbol id="stop" viewBox="0 0 24 24">
      <path
        fill-rule="evenodd"
        clip-rule="evenodd"
        d="M10 18a8 8 0 1 0 0-16 8 8 0 0 0 0 16ZM8 7a1 1 0 0 0-1 1v4a1 1 0 0 0 1 1h4a1 1 0 0 0 1-1V8a1 1 0 0 0-1-1H8Z"
        fill="currentcolor"
      />
    </symbol>
    <symbol id="chat-alt-2" viewBox="0 0 24 24">
      <path
        d="M2 5a2 2 0 0 1 2-2h7a2 2 0 0 1 2 2v4a2 2 0 0 1-2 2H9l-3 3v-3H4a2 2 0 0 1-2-2V5Z"
        fill="currentcolor"
      />
      <path
        d="M15 7v2a4 4 0 0 1-4 4H9.828l-1.766 1.767c.28.149.599.233.938.233h2l3 3v-3h2a2 2 0 0 0 2-2V9a2 2 0 0 0-2-2h-1Z"
        fill="currentcolor"
      />
    </symbol>
    <symbol id="eye-off" viewBox="0 0 24 24">
      <path
        fill-rule="evenodd"
        clip-rule="evenodd"
        d="M3.707 2.293a1 1 0 0 0-1.414 1.414l14 14a1 1 0 0 0 1.414-1.414l-1.473-1.473A10.014 10.014 0 0 0 19.542 10C18.268 5.943 14.478 3 10 3a9.958 9.958 0 0 0-4.512 1.074l-1.78-1.781Zm4.261 4.26 1.514 1.515a2.003 2.003 0 0 1 2.45 2.45l1.514 1.514a4 4 0 0 0-5.478-5.478Z"
        fill="currentcolor"
      />
      <path
        d="M12.454 16.697 9.75 13.992a4 4 0 0 1-3.742-3.741L2.335 6.578A9.98 9.98 0 0 0 .458 10c1.274 4.057 5.065 7 9.542 7 .847 0 1.669-.105 2.454-.303Z"
        fill="currentcolor"
      />
    </symbol>
    <symbol id="star" viewBox="0 0 24 24">
      <path
        d="M9.049 3.927c.3-.921 1.603-.921 1.902 0l1.07 3.292a1 1 0 0 0 .95.69h3.462c.969 0 1.371 1.24.588 1.81l-2.8 2.034a1 1 0 0 0-.364 1.118l1.07 3.292c.3.921-.755 1.688-1.54 1.118l-2.8-2.034a1 1 0 0 0-1.175 0l-2.8 2.034c-.784.57-1.838-.197-1.539-1.118l1.07-3.292a1 1 0 0 0-.364-1.118L2.98 9.72c-.783-.57-.38-1.81.588-1.81h3.461a1 1 0 0 0 .951-.69l1.07-3.292Z"
        fill="currentcolor"
      />
    </symbol>
    <symbol id="terminal" viewBox="0 0 24 24">
      <path
        fill-rule="evenodd"
        clip-rule="evenodd"
        d="M2 5a2 2 0 0 1 2-2h12a2 2 0 0 1 2 2v10a2 2 0 0 1-2 2H4a2 2 0 0 1-2-2V5Zm3.293 1.293a1 1 0 0 1 1.414 0l3 3a1 1 0 0 1 0 1.414l-3 3a1 1 0 0 1-1.414-1.414L7.586 10 5.293 7.707a1 1 0 0 1 0-1.414ZM11 12a1 1 0 1 0 0 2h3a1 1 0 1 0 0-2h-3Z"
        fill="currentcolor"
      />
    </symbol>
    <symbol id="chart-bar" viewBox="0 0 24 24">
      <path
        d="M2 11a1 1 0 0 1 1-1h2a1 1 0 0 1 1 1v5a1 1 0 0 1-1 1H3a1 1 0 0 1-1-1v-5ZM8 7a1 1 0 0 1 1-1h2a1 1 0 0 1 1 1v9a1 1 0 0 1-1 1H9a1 1 0 0 1-1-1V7ZM14 4a1 1 0 0 1 1-1h2a1 1 0 0 1 1 1v12a1 1 0 0 1-1 1h-2a1 1 0 0 1-1-1V4Z"
        fill="currentcolor"
      />
    </symbol>
    <symbol id="chart-square-bar" viewBox="0 0 24 24">
      <path
        fill-rule="evenodd"
        clip-rule="evenodd"
        d="M5 3a2 2 0 0 0-2 2v10a2 2 0 0 0 2 2h10a2 2 0 0 0 2-2V5a2 2 0 0 0-2-2H5Zm9 4a1 1 0 1 0-2 0v6a1 1 0 1 0 2 0V7Zm-3 2a1 1 0 1 0-2 0v4a1 1 0 1 0 2 0V9Zm-3 3a1 1 0 1 0-2 0v1a1 1 0 1 0 2 0v-1Z"
        fill="currentcolor"
      />
    </symbol>
    <symbol id="fire" viewBox="0 0 24 24">
      <path
        fill-rule="evenodd"
        clip-rule="evenodd"
        d="M11.757 2.034a1 1 0 0 1 .638.519c.483.967.844 1.554 1.207 2.03.368.482.756.876 1.348 1.467A6.981 6.981 0 0 1 17 11 7 7 0 1 1 5.05 6.05a1 1 0 0 1 1.707.707c0 1.12.07 1.973.398 2.654.18.374.46.74.945 1.067.116-1.061.328-2.354.614-3.58.225-.966.505-1.93.839-2.734.167-.403.356-.785.57-1.116.208-.322.477-.65.822-.88a1 1 0 0 1 .812-.134Zm.364 13.087A3 3 0 0 1 7 13s.879.5 2.5.5c0-1 .5-4 1.25-4.5.5 1 .786 1.293 1.371 1.879A2.99 2.99 0 0 1 13 13a2.99 2.99 0 0 1-.879 2.121Z"
        fill="currentcolor"
      />
    </symbol>
    <symbol id="shopping-bag" viewBox="0 0 24 24">
      <path
        fill-rule="evenodd"
        clip-rule="evenodd"
        d="M10 2a4 4 0 0 0-4 4v1H5a1 1 0 0 0-.994.89l-1 9A1 1 0 0 0 4 18h12a1 1 0 0 0 .994-1.11l-1-9A1 1 0 0 0 15 7h-1V6a4 4 0 0 0-4-4Zm2 5V6a2 2 0 1 0-4 0v1h4Zm-6 3a1 1 0 1 1 2 0 1 1 0 0 1-2 0Zm7-1a1 1 0 1 0 0 2 1 1 0 0 0 0-2Z"
        fill="currentcolor"
      />
    </symbol>
    <symbol id="thumb-up" viewBox="0 0 24 24">
      <path
        d="M2 10.5a1.5 1.5 0 1 1 3 0v6a1.5 1.5 0 0 1-3 0v-6ZM6 10.333v5.43a2 2 0 0 0 1.106 1.79l.05.025A4 4 0 0 0 8.943 18h5.416a2 2 0 0 0 1.962-1.608l1.2-6A2 2 0 0 0 15.56 8H12V4a2 2 0 0 0-2-2 1 1 0 0 0-1 1v.667a4 4 0 0 1-.8 2.4L6.8 7.933a4 4 0 0 0-.8 2.4Z"
        fill="currentcolor"
      />
    </symbol>
    <symbol id="thumb-down" viewBox="0 0 24 24">
      <path
        d="M18 9.5a1.5 1.5 0 1 1-3 0v-6a1.5 1.5 0 0 1 3 0v6ZM14 9.667v-5.43a2 2 0 0 0-1.105-1.79l-.05-.025A4 4 0 0 0 11.055 2H5.64a2 2 0 0 0-1.962 1.608l-1.2 6A2 2 0 0 0 4.44 12H8v4a2 2 0 0 0 2 2 1 1 0 0 0 1-1v-.667a4 4 0 0 1 .8-2.4l1.4-1.866a4 4 0 0 0 .8-2.4Z"
        fill="currentcolor"
      />
    </symbol>
    <symbol id="hand" viewBox="0 0 24 24">
      <path
        d="M9 3a1 1 0 0 1 2 0v5.5a.5.5 0 0 0 1 0V4a1 1 0 1 1 2 0v4.5a.5.5 0 0 0 1 0V6a1 1 0 1 1 2 0v5a7 7 0 1 1-14 0V9a1 1 0 0 1 2 0v2.5a.5.5 0 0 0 1 0V4a1 1 0 0 1 2 0v4.5a.5.5 0 0 0 1 0V3Z"
        fill="currentcolor"
      />
    </symbol>
    <symbol id="arrows-expand" viewBox="0 0 24 24">
      <path
        fill-rule="evenodd"
        clip-rule="evenodd"
        d="M3 4a1 1 0 0 1 1-1h4a1 1 0 0 1 0 2H6.414l2.293 2.293a1 1 0 0 1-1.414 1.414L5 6.414V8a1 1 0 0 1-2 0V4Zm9 1a1 1 0 1 1 0-2h4a1 1 0 0 1 1 1v4a1 1 0 1 1-2 0V6.414l-2.293 2.293a1 1 0 1 1-1.414-1.414L13.586 5H12Zm-9 7a1 1 0 1 1 2 0v1.586l2.293-2.293a1 1 0 0 1 1.414 1.414L6.414 15H8a1 1 0 1 1 0 2H4a1 1 0 0 1-1-1v-4Zm13-1a1 1 0 0 1 1 1v4a1 1 0 0 1-1 1h-4a1 1 0 1 1 0-2h1.586l-2.293-2.293a1 1 0 0 1 1.414-1.414L15 13.586V12a1 1 0 0 1 1-1Z"
        fill="currentcolor"
      />
    </symbol>
    <symbol id="view-grid" viewBox="0 0 24 24">
      <path
        d="M5 3a2 2 0 0 0-2 2v2a2 2 0 0 0 2 2h2a2 2 0 0 0 2-2V5a2 2 0 0 0-2-2H5ZM5 11a2 2 0 0 0-2 2v2a2 2 0 0 0 2 2h2a2 2 0 0 0 2-2v-2a2 2 0 0 0-2-2H5ZM11 5a2 2 0 0 1 2-2h2a2 2 0 0 1 2 2v2a2 2 0 0 1-2 2h-2a2 2 0 0 1-2-2V5ZM11 13a2 2 0 0 1 2-2h2a2 2 0 0 1 2 2v2a2 2 0 0 1-2 2h-2a2 2 0 0 1-2-2v-2Z"
        fill="currentcolor"
      />
    </symbol>
    <symbol id="puzzle" viewBox="0 0 24 24">
      <path
        d="M10 3.5a1.5 1.5 0 0 1 3 0V4a1 1 0 0 0 1 1h3a1 1 0 0 1 1 1v3a1 1 0 0 1-1 1h-.5a1.5 1.5 0 0 0 0 3h.5a1 1 0 0 1 1 1v3a1 1 0 0 1-1 1h-3a1 1 0 0 1-1-1v-.5a1.5 1.5 0 0 0-3 0v.5a1 1 0 0 1-1 1H6a1 1 0 0 1-1-1v-3a1 1 0 0 0-1-1h-.5a1.5 1.5 0 0 1 0-3H4a1 1 0 0 0 1-1V6a1 1 0 0 1 1-1h3a1 1 0 0 0 1-1v-.5Z"
        fill="currentcolor"
      />
    </symbol>
    <symbol id="folder-download" viewBox="0 0 24 24">
      <path
        fill-rule="evenodd"
        clip-rule="evenodd"
        d="M4 4a2 2 0 0 0-2 2v8a2 2 0 0 0 2 2h12a2 2 0 0 0 2-2V8a2 2 0 0 0-2-2h-5L9 4H4Zm7 5a1 1 0 1 0-2 0v1.586l-.293-.293a1 1 0 1 0-1.414 1.414l2 2a1 1 0 0 0 1.414 0l2-2a1 1 0 0 0-1.414-1.414l-.293.293V9Z"
        fill="currentcolor"
      />
    </symbol>
    <symbol id="folder-add" viewBox="0 0 24 24">
      <path
        fill-rule="evenodd"
        clip-rule="evenodd"
        d="M4 4a2 2 0 0 0-2 2v8a2 2 0 0 0 2 2h12a2 2 0 0 0 2-2V8a2 2 0 0 0-2-2h-5L9 4H4Zm7 5a1 1 0 1 0-2 0v1H8a1 1 0 1 0 0 2h1v1a1 1 0 1 0 2 0v-1h1a1 1 0 1 0 0-2h-1V9Z"
        fill="currentcolor"
      />
    </symbol>
    <symbol id="folder-remove" viewBox="0 0 24 24">
      <path
        fill-rule="evenodd"
        clip-rule="evenodd"
        d="M4 4a2 2 0 0 0-2 2v8a2 2 0 0 0 2 2h12a2 2 0 0 0 2-2V8a2 2 0 0 0-2-2h-5L9 4H4Zm4 6a1 1 0 1 0 0 2h4a1 1 0 1 0 0-2H8Z"
        fill="currentcolor"
      />
    </symbol>
    <symbol id="status-online" viewBox="0 0 24 24">
      <path
        fill-rule="evenodd"
        clip-rule="evenodd"
        d="M5.05 3.636a1 1 0 0 1 0 1.414 7 7 0 0 0 0 9.9 1 1 0 1 1-1.414 1.414 9 9 0 0 1 0-12.728 1 1 0 0 1 1.414 0Zm9.9 0a1 1 0 0 1 1.414 0 9 9 0 0 1 0 12.728 1 1 0 0 1-1.414-1.414 7 7 0 0 0 0-9.9 1 1 0 0 1 0-1.414ZM7.879 6.464a1 1 0 0 1 0 1.415 3 3 0 0 0 0 4.242 1 1 0 1 1-1.415 1.414 5 5 0 0 1 0-7.07 1 1 0 0 1 1.415 0Zm4.242 0a1 1 0 0 1 1.415 0 5 5 0 0 1 0 7.072 1 1 0 1 1-1.415-1.415 3 3 0 0 0 0-4.242 1 1 0 0 1 0-1.414ZM10 9a1 1 0 0 1 1 1v.01a1 1 0 1 1-2 0V10a1 1 0 0 1 1-1Z"
        fill="currentcolor"
      />
    </symbol>
    <symbol id="receipt-tax" viewBox="0 0 24 24">
      <path
        fill-rule="evenodd"
        clip-rule="evenodd"
        d="M5 2a2 2 0 0 0-2 2v14l3.5-2 3.5 2 3.5-2 3.5 2V4a2 2 0 0 0-2-2H5Zm2.5 3a1.5 1.5 0 1 0 0 3 1.5 1.5 0 0 0 0-3Zm6.207.293a1 1 0 0 0-1.414 0l-6 6a1 1 0 1 0 1.414 1.414l6-6a1 1 0 0 0 0-1.414ZM12.5 10a1.5 1.5 0 1 0 0 3 1.5 1.5 0 0 0 0-3Z"
        fill="currentcolor"
      />
    </symbol>
    <symbol id="status-offline" viewBox="0 0 24 24">
      <path
        d="M3.707 2.293a1 1 0 0 0-1.414 1.414l6.921 6.922c.05.062.105.118.168.167l6.91 6.911a1 1 0 0 0 1.415-1.414l-.675-.675a9.001 9.001 0 0 0-.668-11.982A1 1 0 1 0 14.95 5.05a7.002 7.002 0 0 1 .657 9.143l-1.435-1.435a5.002 5.002 0 0 0-.636-6.294A1 1 0 0 0 12.12 7.88c.924.923 1.12 2.3.587 3.415l-1.992-1.992a.922.922 0 0 0-.018-.018l-6.99-6.991ZM3.238 8.187a1 1 0 0 0-1.933-.516c-.8 3-.025 6.336 2.331 8.693a1 1 0 0 0 1.414-1.415 6.997 6.997 0 0 1-1.812-6.762ZM7.4 11.5a1 1 0 1 0-1.73 1c.214.371.48.72.795 1.035a1 1 0 0 0 1.414-1.414c-.191-.191-.35-.4-.478-.622Z"
        fill="currentcolor"
      />
    </symbol>
    <symbol id="presentation-chart-line" viewBox="0 0 24 24">
      <path
        fill-rule="evenodd"
        clip-rule="evenodd"
        d="M3 3a1 1 0 0 0 0 2v8a2 2 0 0 0 2 2h2.586l-1.293 1.293a1 1 0 1 0 1.414 1.414L10 15.414l2.293 2.293a1 1 0 0 0 1.414-1.414L12.414 15H15a2 2 0 0 0 2-2V5a1 1 0 1 0 0-2H3Zm11.707 4.707a1 1 0 0 0-1.414-1.414L10 9.586 8.707 8.293a1 1 0 0 0-1.414 0l-2 2a1 1 0 1 0 1.414 1.414L8 10.414l1.293 1.293a1 1 0 0 0 1.414 0l4-4Z"
        fill="currentcolor"
      />
    </symbol>
    <symbol id="chip" viewBox="0 0 24 24">
      <path d="M13 7H7v6h6V7Z" fill="currentcolor" />
      <path
        fill-rule="evenodd"
        clip-rule="evenodd"
        d="M7 2a1 1 0 0 1 2 0v1h2V2a1 1 0 1 1 2 0v1h2a2 2 0 0 1 2 2v2h1a1 1 0 1 1 0 2h-1v2h1a1 1 0 1 1 0 2h-1v2a2 2 0 0 1-2 2h-2v1a1 1 0 1 1-2 0v-1H9v1a1 1 0 1 1-2 0v-1H5a2 2 0 0 1-2-2v-2H2a1 1 0 1 1 0-2h1V9H2a1 1 0 0 1 0-2h1V5a2 2 0 0 1 2-2h2V2ZM5 5h10v10H5V5Z"
        fill="currentcolor"
      />
    </symbol>
    <symbol id="fast-forward" viewBox="0 0 24 24">
      <path
        d="M4.555 5.168A1 1 0 0 0 3 6v8a1 1 0 0 0 1.555.832L10 11.202V14a1 1 0 0 0 1.555.832l6-4a1 1 0 0 0 0-1.664l-6-4A1 1 0 0 0 10 6v2.798l-5.445-3.63Z"
        fill="currentcolor"
      />
    </symbol>
    <symbol id="rewind" viewBox="0 0 24 24">
      <path
        d="M8.445 14.832A1 1 0 0 0 10 14v-2.798l5.445 3.63A1 1 0 0 0 17 14V6a1 1 0 0 0-1.555-.832L10 8.798V6a1 1 0 0 0-1.555-.832l-6 4a1 1 0 0 0 0 1.664l6 4Z"
        fill="currentcolor"
      />
    </symbol>
    <symbol id="presentation-chart-bar" viewBox="0 0 24 24">
      <path
        fill-rule="evenodd"
        clip-rule="evenodd"
        d="M3 3a1 1 0 0 0 0 2v8a2 2 0 0 0 2 2h2.586l-1.293 1.293a1 1 0 1 0 1.414 1.414L10 15.414l2.293 2.293a1 1 0 0 0 1.414-1.414L12.414 15H15a2 2 0 0 0 2-2V5a1 1 0 1 0 0-2H3Zm11 4a1 1 0 1 0-2 0v4a1 1 0 1 0 2 0V7Zm-3 1a1 1 0 1 0-2 0v3a1 1 0 1 0 2 0V8ZM8 9a1 1 0 0 0-2 0v2a1 1 0 1 0 2 0V9Z"
        fill="currentcolor"
      />
    </symbol>
    <symbol id="cube-transparent" viewBox="0 0 24 24">
      <path
        d="M9.504 1.132a1 1 0 0 1 .992 0l1.75 1a1 1 0 1 1-.992 1.736L10 3.152l-1.254.716a1 1 0 1 1-.992-1.736l1.75-1ZM5.618 4.504a1 1 0 0 1-.372 1.364L5.016 6l.23.132a1 1 0 1 1-.992 1.736L4 7.723V8a1 1 0 0 1-2 0V6a.996.996 0 0 1 .52-.878l1.734-.99a1 1 0 0 1 1.364.372ZM14.382 4.504a1 1 0 0 1 1.364-.372l1.733.99A1.002 1.002 0 0 1 18 6v2a1 1 0 1 1-2 0v-.277l-.254.145a1 1 0 1 1-.992-1.736l.23-.132-.23-.132a1 1 0 0 1-.372-1.364ZM7.382 8.504a1 1 0 0 1 1.364-.372L10 8.848l1.254-.716a1 1 0 1 1 .992 1.736L11 10.58V12a1 1 0 1 1-2 0v-1.42l-1.246-.712a1 1 0 0 1-.372-1.364ZM3 11a1 1 0 0 1 1 1v1.42l1.246.712a1 1 0 1 1-.992 1.736l-1.75-1A1 1 0 0 1 2 14v-2a1 1 0 0 1 1-1ZM17 11a1 1 0 0 1 1 1v2a1 1 0 0 1-.504.868l-1.75 1a1 1 0 1 1-.992-1.736L16 13.42V12a1 1 0 0 1 1-1ZM7.382 16.504a1 1 0 0 1 1.364-.372l.254.145V16a1 1 0 1 1 2 0v.277l.254-.145a1 1 0 1 1 .992 1.736l-1.735.992a.995.995 0 0 1-1.022 0l-1.735-.992a1 1 0 0 1-.372-1.364Z"
        fill="currentcolor"
      />
    </symbol>
    <symbol id="search-circle" viewBox="0 0 24 24">
      <path d="M9 9a2 2 0 1 1 4 0 2 2 0 0 1-4 0Z" fill="currentcolor" />
      <path
        fill-rule="evenodd"
        clip-rule="evenodd"
        d="M10 18a8 8 0 1 0 0-16 8 8 0 0 0 0 16Zm1-13a4 4 0 0 0-3.446 6.032l-2.261 2.26a1 1 0 1 0 1.414 1.415l2.261-2.261A4 4 0 1 0 11 5Z"
        fill="currentcolor"
      />
    </symbol>
    <symbol id="cloud" viewBox="0 0 24 24">
      <path
        d="M5.5 16a3.5 3.5 0 0 1-.369-6.98 4 4 0 1 1 7.753-1.977A4.5 4.5 0 1 1 13.5 16h-8Z"
        fill="currentcolor"
      />
    </symbol>
    <symbol id="variable" viewBox="0 0 24 24">
      <path
        d="M4.649 3.084A1 1 0 0 1 5.163 4.4 13.95 13.95 0 0 0 4 10c0 1.993.416 3.886 1.164 5.6a1 1 0 0 1-1.832.8A15.95 15.95 0 0 1 2 10c0-2.274.475-4.44 1.332-6.4a1 1 0 0 1 1.317-.516ZM12.961 7a3 3 0 0 0-2.342 1.126l-.328.41-.111-.279A2 2 0 0 0 8.323 7H8a1 1 0 0 0 0 2h.323l.532 1.33-1.035 1.295a1 1 0 0 1-.781.375H7a1 1 0 1 0 0 2h.039a3 3 0 0 0 2.342-1.126l.328-.41.111.279A2 2 0 0 0 11.677 14H12a1 1 0 1 0 0-2h-.323l-.532-1.33 1.035-1.295A1 1 0 0 1 12.961 9H13a1 1 0 1 0 0-2h-.039ZM14.835 4.4a1 1 0 0 1 1.833-.8A15.95 15.95 0 0 1 18 10c0 2.274-.475 4.44-1.332 6.4a1 1 0 1 1-1.832-.8A13.949 13.949 0 0 0 16 10c0-1.993-.416-3.886-1.165-5.6Z"
        fill="currentcolor"
      />
    </symbol>
    <symbol id="academic-cap" viewBox="0 0 24 24">
      <path
        d="M10.394 2.08a1 1 0 0 0-.788 0l-7 3a1 1 0 0 0 0 1.84L5.25 8.051a.999.999 0 0 1 .356-.257l4-1.714a1 1 0 1 1 .788 1.838L7.667 9.088l1.94.831a1 1 0 0 0 .787 0l7-3a1 1 0 0 0 0-1.838l-7-3ZM3.31 9.397 5 10.12v4.102a8.969 8.969 0 0 0-1.05-.174 1 1 0 0 1-.89-.89 11.115 11.115 0 0 1 .25-3.762ZM9.3 16.573A9.026 9.026 0 0 0 7 14.935v-3.957l1.818.78a3 3 0 0 0 2.364 0l5.508-2.361a11.026 11.026 0 0 1 .25 3.762 1 1 0 0 1-.89.89 8.968 8.968 0 0 0-5.35 2.524 1 1 0 0 1-1.4 0ZM6 18a1 1 0 0 0 1-1v-2.065a8.935 8.935 0 0 0-2-.712V17a1 1 0 0 0 1 1Z"
        fill="currentcolor"
      />
    </symbol>
    <symbol id="phone-missed-call" viewBox="0 0 24 24">
      <path
        d="M2 3a1 1 0 0 1 1-1h2.153a1 1 0 0 1 .986.836l.74 4.435a1 1 0 0 1-.54 1.06l-1.548.773a11.037 11.037 0 0 0 6.105 6.105l.774-1.548a1 1 0 0 1 1.059-.54l4.435.74a1 1 0 0 1 .836.986V17a1 1 0 0 1-1 1h-2C7.82 18 2 12.18 2 5V3Z"
        fill="currentcolor"
      />
      <path
        d="M16.707 3.293a1 1 0 0 1 0 1.414L15.414 6l1.293 1.293a1 1 0 0 1-1.414 1.414L14 7.414l-1.293 1.293a1 1 0 1 1-1.414-1.414L12.586 6l-1.293-1.293a1 1 0 0 1 1.414-1.414L14 4.586l1.293-1.293a1 1 0 0 1 1.414 0Z"
        fill="currentcolor"
      />
    </symbol>
    <symbol id="plus-sm" viewBox="0 0 24 24">
      <path
        fill-rule="evenodd"
        clip-rule="evenodd"
        d="M10 5a1 1 0 0 1 1 1v3h3a1 1 0 1 1 0 2h-3v3a1 1 0 1 1-2 0v-3H6a1 1 0 1 1 0-2h3V6a1 1 0 0 1 1-1Z"
        fill="currentcolor"
      />
    </symbol>
    <symbol id="minus-sm" viewBox="0 0 24 24">
      <path
        fill-rule="evenodd"
        clip-rule="evenodd"
        d="M5 10a1 1 0 0 1 1-1h8a1 1 0 1 1 0 2H6a1 1 0 0 1-1-1Z"
        fill="currentcolor"
      />
    </symbol>
    <symbol id="gift" viewBox="0 0 24 24">
      <path
        fill-rule="evenodd"
        clip-rule="evenodd"
        d="M5 5a3 3 0 0 1 5-2.236A3 3 0 0 1 14.83 6H16a2 2 0 1 1 0 4h-5V9a1 1 0 1 0-2 0v1H4a2 2 0 1 1 0-4h1.17C5.06 5.687 5 5.35 5 5Zm4 1V5a1 1 0 1 0-1 1h1Zm3 0a1 1 0 1 0-1-1v1h1Z"
        fill="currentcolor"
      />
      <path
        d="M9 11H3v5a2 2 0 0 0 2 2h4v-7ZM11 18h4a2 2 0 0 0 2-2v-5h-6v7Z"
        fill="currentcolor"
      />
    </symbol>
    <symbol id="truck" viewBox="0 0 24 24">
      <path
        d="M8 16.5a1.5 1.5 0 1 1-3 0 1.5 1.5 0 0 1 3 0ZM15 16.5a1.5 1.5 0 1 1-3 0 1.5 1.5 0 0 1 3 0Z"
        fill="currentcolor"
      />
      <path
        d="M3 4a1 1 0 0 0-1 1v10a1 1 0 0 0 1 1h1.05a2.5 2.5 0 0 1 4.9 0H10a1 1 0 0 0 1-1V5a1 1 0 0 0-1-1H3ZM14 7a1 1 0 0 0-1 1v6.05A2.5 2.5 0 0 1 15.95 16H17a1 1 0 0 0 1-1v-5a1 1 0 0 0-.293-.707l-2-2A1 1 0 0 0 15 7h-1Z"
        fill="currentcolor"
      />
    </symbol>
    <symbol id="currency-bangladeshi" viewBox="0 0 24 24">
      <path
        fill-rule="evenodd"
        clip-rule="evenodd"
        d="M10 18a8 8 0 1 0 0-16 8 8 0 0 0 0 16ZM7 4a1 1 0 0 0 0 2 1 1 0 0 1 1 1v1H7a1 1 0 0 0 0 2h1v3a3 3 0 1 0 6 0v-1a1 1 0 1 0-2 0v1a1 1 0 1 1-2 0v-3h3a1 1 0 1 0 0-2h-3V7a3 3 0 0 0-3-3Z"
        fill="currentcolor"
      />
    </symbol>
    <symbol id="document-search" viewBox="0 0 24 24">
      <path
        d="M4 4a2 2 0 0 1 2-2h4.586A2 2 0 0 1 12 2.586L15.414 6A2 2 0 0 1 16 7.414V16a2 2 0 0 1-2 2h-1.528A6 6 0 0 0 4 9.528V4Z"
        fill="currentcolor"
      />
      <path
        fill-rule="evenodd"
        clip-rule="evenodd"
        d="M8 10a4 4 0 0 0-3.446 6.032l-1.261 1.26a1 1 0 1 0 1.414 1.415l1.261-1.261A4 4 0 1 0 8 10Zm-2 4a2 2 0 1 1 4 0 2 2 0 0 1-4 0Z"
        fill="currentcolor"
      />
    </symbol>
    <symbol id="document-text" viewBox="0 0 24 24">
      <path
        fill-rule="evenodd"
        clip-rule="evenodd"
        d="M4 4a2 2 0 0 1 2-2h4.586A2 2 0 0 1 12 2.586L15.414 6A2 2 0 0 1 16 7.414V16a2 2 0 0 1-2 2H6a2 2 0 0 1-2-2V4Zm2 6a1 1 0 0 1 1-1h6a1 1 0 1 1 0 2H7a1 1 0 0 1-1-1Zm1 3a1 1 0 1 0 0 2h6a1 1 0 1 0 0-2H7Z"
        fill="currentcolor"
      />
    </symbol>
    <symbol id="cake" viewBox="0 0 24 24">
      <path
        d="M6 3a1 1 0 0 1 1-1h.01a1 1 0 0 1 0 2H7a1 1 0 0 1-1-1ZM8 6a1 1 0 0 0-2 0v1a2 2 0 0 0-2 2v1a2 2 0 0 0-2 2v.683a3.7 3.7 0 0 1 1.055.485 1.704 1.704 0 0 0 1.89 0 3.704 3.704 0 0 1 4.11 0 1.704 1.704 0 0 0 1.89 0 3.704 3.704 0 0 1 4.11 0 1.704 1.704 0 0 0 1.89 0A3.7 3.7 0 0 1 18 12.683V12a2 2 0 0 0-2-2V9a2 2 0 0 0-2-2V6a1 1 0 1 0-2 0v1h-1V6a1 1 0 1 0-2 0v1H8V6ZM18 14.868a3.704 3.704 0 0 1-4.055-.036 1.704 1.704 0 0 0-1.89 0 3.704 3.704 0 0 1-4.11 0 1.704 1.704 0 0 0-1.89 0A3.704 3.704 0 0 1 2 14.868V17a1 1 0 0 0 1 1h14a1 1 0 0 0 1-1v-2.132ZM9 3a1 1 0 0 1 1-1h.01a1 1 0 1 1 0 2H10a1 1 0 0 1-1-1ZM12 3a1 1 0 0 1 1-1h.01a1 1 0 1 1 0 2H13a1 1 0 0 1-1-1Z"
        fill="currentcolor"
      />
    </symbol>
    <symbol id="video-camera" viewBox="0 0 24 24">
      <path
        d="M2 6a2 2 0 0 1 2-2h6a2 2 0 0 1 2 2v8a2 2 0 0 1-2 2H4a2 2 0 0 1-2-2V6ZM14.553 7.106A1 1 0 0 0 14 8v4a1 1 0 0 0 .553.894l2 1A1 1 0 0 0 18 13V7a1 1 0 0 0-1.447-.894l-2 1Z"
        fill="currentcolor"
      />
    </symbol>
    <symbol id="beaker" viewBox="0 0 24 24">
      <path
        fill-rule="evenodd"
        clip-rule="evenodd"
        d="M7 2a1 1 0 0 0-.707 1.707L7 4.414v3.758a1 1 0 0 1-.293.707l-4 4C.817 14.769 2.156 18 4.828 18h10.343c2.673 0 4.012-3.231 2.122-5.121l-4-4A1 1 0 0 1 13 8.172V4.414l.707-.707A1 1 0 0 0 13 2H7Zm2 6.172V4h2v4.172a3 3 0 0 0 .879 2.12l1.027 1.028a4 4 0 0 0-2.171.102l-.47.156a4 4 0 0 1-2.53 0l-.563-.187a1.993 1.993 0 0 0-.114-.035l1.063-1.063A3 3 0 0 0 9 8.172Z"
        fill="currentcolor"
      />
    </symbol>
    <symbol id="table" viewBox="0 0 24 24">
      <path
        fill-rule="evenodd"
        clip-rule="evenodd"
        d="M6 2a2 2 0 0 0-2 2v12a2 2 0 0 0 2 2h8a2 2 0 0 0 2-2V4a2 2 0 0 0-2-2H6Zm1 2a1 1 0 0 0 0 2h6a1 1 0 1 0 0-2H7Zm6 7a1 1 0 0 1 1 1v3a1 1 0 1 1-2 0v-3a1 1 0 0 1 1-1Zm-3 3a1 1 0 1 0 0 2h.01a1 1 0 1 0 0-2H10Zm-4 1a1 1 0 0 1 1-1h.01a1 1 0 1 1 0 2H7a1 1 0 0 1-1-1Zm1-4a1 1 0 1 0 0 2h.01a1 1 0 1 0 0-2H7Zm2 1a1 1 0 0 1 1-1h.01a1 1 0 1 1 0 2H10a1 1 0 0 1-1-1Zm4-4a1 1 0 1 0 0 2h.01a1 1 0 1 0 0-2H13ZM9 9a1 1 0 0 1 1-1h.01a1 1 0 1 1 0 2H10a1 1 0 0 1-1-1ZM7 8a1 1 0 0 0 0 2h.01a1 1 0 0 0 0-2H7Z"
        fill="currentcolor"
      />
    </symbol>
    <symbol id="table" viewBox="0 0 24 24">
      <path
        fill-rule="evenodd"
        clip-rule="evenodd"
        d="M5 4a3 3 0 0 0-3 3v6a3 3 0 0 0 3 3h10a3 3 0 0 0 3-3V7a3 3 0 0 0-3-3H5Zm-1 9v-1h5v2H5a1 1 0 0 1-1-1Zm7 1h4a1 1 0 0 0 1-1v-1h-5v2Zm0-4h5V8h-5v2ZM9 8H4v2h5V8Z"
        fill="currentcolor"
      />
    </symbol>
    <symbol id="cloud-upload" viewBox="0 0 24 24">
      <path
        d="M5.5 13a3.5 3.5 0 0 1-.369-6.98 4 4 0 1 1 7.753-1.977A4.5 4.5 0 1 1 13.5 13H11V9.413l1.293 1.293a1 1 0 0 0 1.414-1.414l-3-3a1 1 0 0 0-1.414 0l-3 3a1 1 0 0 0 1.414 1.414L9 9.414V13H5.5Z"
        fill="currentcolor"
      />
      <path d="M9 13h2v5a1 1 0 1 1-2 0v-5Z" fill="currentcolor" />
    </symbol>
    <symbol id="save" viewBox="0 0 24 24">
      <path
        d="M7.707 10.293a1 1 0 1 0-1.414 1.414l3 3a1 1 0 0 0 1.414 0l3-3a1 1 0 0 0-1.414-1.414L11 11.586V6h5a2 2 0 0 1 2 2v7a2 2 0 0 1-2 2H4a2 2 0 0 1-2-2V8a2 2 0 0 1 2-2h5v5.586l-1.293-1.293ZM9 4a1 1 0 0 1 2 0v2H9V4Z"
        fill="currentcolor"
      />
    </symbol>
    <symbol id="chevron-double-right" viewBox="0 0 24 24">
      <path
        fill-rule="evenodd"
        clip-rule="evenodd"
        d="M10.293 15.707a1 1 0 0 1 0-1.414L14.586 10l-4.293-4.293a1 1 0 1 1 1.414-1.414l5 5a1 1 0 0 1 0 1.414l-5 5a1 1 0 0 1-1.414 0Z"
        fill="currentcolor"
      />
      <path
        fill-rule="evenodd"
        clip-rule="evenodd"
        d="M4.293 15.707a1 1 0 0 1 0-1.414L8.586 10 4.293 5.707a1 1 0 0 1 1.414-1.414l5 5a1 1 0 0 1 0 1.414l-5 5a1 1 0 0 1-1.414 0Z"
        fill="currentcolor"
      />
    </symbol>
    <symbol id="chevron-double-left" viewBox="0 0 24 24">
      <path
        fill-rule="evenodd"
        clip-rule="evenodd"
        d="M15.707 15.707a1 1 0 0 1-1.414 0l-5-5a1 1 0 0 1 0-1.414l5-5a1 1 0 1 1 1.414 1.414L11.414 10l4.293 4.293a1 1 0 0 1 0 1.414Zm-6 0a1 1 0 0 1-1.414 0l-5-5a1 1 0 0 1 0-1.414l5-5a1 1 0 0 1 1.414 1.414L5.414 10l4.293 4.293a1 1 0 0 1 0 1.414Z"
        fill="currentcolor"
      />
    </symbol>
    <symbol id="chevron-double-down" viewBox="0 0 24 24">
      <path
        fill-rule="evenodd"
        clip-rule="evenodd"
        d="M15.707 4.293a1 1 0 0 1 0 1.414l-5 5a1 1 0 0 1-1.414 0l-5-5a1 1 0 0 1 1.414-1.414L10 8.586l4.293-4.293a1 1 0 0 1 1.414 0Zm0 6a1 1 0 0 1 0 1.414l-5 5a1 1 0 0 1-1.414 0l-5-5a1 1 0 1 1 1.414-1.414L10 14.586l4.293-4.293a1 1 0 0 1 1.414 0Z"
        fill="currentcolor"
      />
    </symbol>
    <symbol id="chevron-double-up" viewBox="0 0 24 24">
      <path
        fill-rule="evenodd"
        clip-rule="evenodd"
        d="M4.293 15.707a1 1 0 0 1 0-1.414l5-5a1 1 0 0 1 1.414 0l5 5a1 1 0 0 1-1.414 1.414L10 11.414l-4.293 4.293a1 1 0 0 1-1.414 0Zm0-6a1 1 0 0 1 0-1.414l5-5a1 1 0 0 1 1.414 0l5 5a1 1 0 0 1-1.414 1.414L10 5.414 5.707 9.707a1 1 0 0 1-1.414 0Z"
        fill="currentcolor"
      />
    </symbol>
    <symbol id="finger-print" viewBox="0 0 24 24">
      <path
        fill-rule="evenodd"
        clip-rule="evenodd"
        d="M6.625 2.655A9 9 0 0 1 19 11a1 1 0 1 1-2 0 7 7 0 0 0-9.625-6.492 1 1 0 1 1-.75-1.853ZM4.662 4.959A1 1 0 0 1 4.75 6.37 6.97 6.97 0 0 0 3 11a1 1 0 1 1-2 0 8.97 8.97 0 0 1 2.25-5.953 1 1 0 0 1 1.412-.088Z"
        fill="currentcolor"
      />
      <path
        fill-rule="evenodd"
        clip-rule="evenodd"
        d="M5 11a5 5 0 0 1 10 0 1 1 0 1 1-2 0 3 3 0 1 0-6 0c0 1.677-.345 3.276-.968 4.729a1 1 0 1 1-1.838-.789A9.964 9.964 0 0 0 5 11Zm8.921 2.012a1 1 0 0 1 .831 1.145 19.86 19.86 0 0 1-.545 2.436 1 1 0 1 1-1.92-.558c.207-.713.371-1.445.49-2.192a1 1 0 0 1 1.144-.83Z"
        fill="currentcolor"
      />
      <path
        fill-rule="evenodd"
        clip-rule="evenodd"
        d="M10 10a1 1 0 0 1 1 1c0 2.236-.46 4.368-1.29 6.304a1 1 0 0 1-1.838-.789A13.952 13.952 0 0 0 9 11a1 1 0 0 1 1-1Z"
        fill="currentcolor"
      />
    </symbol>
    <symbol id="cube" viewBox="0 0 24 24">
      <path
        d="M11 17a1 1 0 0 0 1.447.894l4-2A1 1 0 0 0 17 15V9.236a1 1 0 0 0-1.447-.894l-4 2a1 1 0 0 0-.553.894V17ZM15.211 6.276a1 1 0 0 0 0-1.788l-4.764-2.382a1 1 0 0 0-.894 0L4.789 4.488a1 1 0 0 0 0 1.788l4.764 2.382a1 1 0 0 0 .894 0l4.764-2.382ZM4.447 8.342A1 1 0 0 0 3 9.236V15a1 1 0 0 0 .553.894l4 2A1 1 0 0 0 9 17v-5.764a1 1 0 0 0-.553-.894l-4-2Z"
        fill="currentcolor"
      />
    </symbol>
    <symbol id="cloud-download" viewBox="0 0 24 24">
      <path
        fill-rule="evenodd"
        clip-rule="evenodd"
        d="M2 9.5A3.5 3.5 0 0 0 5.5 13H9v2.586l-1.293-1.293a1 1 0 0 0-1.414 1.414l3 3a1 1 0 0 0 1.414 0l3-3a1 1 0 0 0-1.414-1.414L11 15.586V13h2.5a4.5 4.5 0 1 0-.616-8.958 4.002 4.002 0 1 0-7.753 1.977A3.5 3.5 0 0 0 2 9.5Zm9 3.5H9V8a1 1 0 0 1 2 0v5Z"
        fill="currentcolor"
      />
    </symbol>
    <symbol id="save-as" viewBox="0 0 24 24">
      <path
        d="M9.707 7.293a1 1 0 0 0-1.414 1.414l3 3a1 1 0 0 0 1.414 0l3-3a1 1 0 0 0-1.414-1.414L13 8.586V5h3a2 2 0 0 1 2 2v5a2 2 0 0 1-2 2H8a2 2 0 0 1-2-2V7a2 2 0 0 1 2-2h3v3.586L9.707 7.293ZM11 3a1 1 0 1 1 2 0v2h-2V3Z"
        fill="currentcolor"
      />
      <path
        d="M4 9a2 2 0 0 0-2 2v5a2 2 0 0 0 2 2h8a2 2 0 0 0 2-2H4V9Z"
        fill="currentcolor"
      />
    </symbol>
    <symbol id="folder-open" viewBox="0 0 24 24">
      <path
        fill-rule="evenodd"
        clip-rule="evenodd"
        d="M2 6a2 2 0 0 1 2-2h4l2 2h4a2 2 0 0 1 2 2v1H8a3 3 0 0 0-3 3v1.5a1.5 1.5 0 0 1-3 0V6Z"
        fill="currentcolor"
      />
      <path
        d="M6 12a2 2 0 0 1 2-2h8a2 2 0 0 1 2 2v2a2 2 0 0 1-2 2H2h2a2 2 0 0 0 2-2v-2Z"
        fill="currentcolor"
      />
    </symbol>
    <symbol id="mail" viewBox="0 0 24 24">
      <path
        fill-rule="evenodd"
        clip-rule="evenodd"
        d="M6 2a2 2 0 0 0-2 2v12a2 2 0 0 0 2 2h8a2 2 0 0 0 2-2V4a2 2 0 0 0-2-2H6Zm4 14a1 1 0 1 0 0-2 1 1 0 0 0 0 2Z"
        fill="currentcolor"
      />
    </symbol>
    <symbol id="backspace" viewBox="0 0 24 24">
      <path
        fill-rule="evenodd"
        clip-rule="evenodd"
        d="M6.707 4.879A3 3 0 0 1 8.828 4H15a3 3 0 0 1 3 3v6a3 3 0 0 1-3 3H8.828a3 3 0 0 1-2.12-.879l-4.415-4.414a1 1 0 0 1 0-1.414l4.414-4.414Zm4 2.414a1 1 0 0 0-1.414 1.414L10.586 10l-1.293 1.293a1 1 0 1 0 1.414 1.414L12 11.414l1.293 1.293a1 1 0 0 0 1.414-1.414L13.414 10l1.293-1.293a1 1 0 0 0-1.414-1.414L12 8.586l-1.293-1.293Z"
        fill="currentcolor"
      />
    </symbol>
    <symbol id="paper-airplane" viewBox="0 0 24 24">
      <path
        d="M10.894 2.553a1 1 0 0 0-1.788 0l-7 14a1 1 0 0 0 1.169 1.409l5-1.429A1 1 0 0 0 9 15.571V11a1 1 0 1 1 2 0v4.571a1 1 0 0 0 .725.962l5 1.428a1 1 0 0 0 1.17-1.408l-7-14Z"
        fill="currentcolor"
      />
    </symbol>
    <symbol id="device-mobile" viewBox="0 0 24 24">
      <path
        fill-rule="evenodd"
        clip-rule="evenodd"
        d="M7 2a2 2 0 0 0-2 2v12a2 2 0 0 0 2 2h6a2 2 0 0 0 2-2V4a2 2 0 0 0-2-2H7Zm3 14a1 1 0 1 0 0-2 1 1 0 0 0 0 2Z"
        fill="currentcolor"
      />
    </symbol>
    <symbol id="music-note" viewBox="0 0 24 24">
      <path
        d="M18 3a1 1 0 0 0-1.196-.98l-10 2A1 1 0 0 0 6 5v9.114A4.369 4.369 0 0 0 5 14c-1.657 0-3 .895-3 2s1.343 2 3 2 3-.895 3-2V7.82l8-1.6v5.894A4.37 4.37 0 0 0 15 12c-1.657 0-3 .895-3 2s1.343 2 3 2 3-.895 3-2V3Z"
        fill="currentcolor"
      />
    </symbol>
    <symbol id="film" viewBox="0 0 24 24">
      <path
        fill-rule="evenodd"
        clip-rule="evenodd"
        d="M4 3a2 2 0 0 0-2 2v10a2 2 0 0 0 2 2h12a2 2 0 0 0 2-2V5a2 2 0 0 0-2-2H4Zm3 2h6v4H7V5Zm8 8v2h1v-2h-1Zm-2-2H7v4h6v-4Zm2 0h1V9h-1v2Zm1-4V5h-1v2h1ZM5 5v2H4V5h1Zm0 4H4v2h1V9Zm-1 4h1v2H4v-2Z"
        fill="currentcolor"
      />
    </symbol>
    <symbol id="database" viewBox="0 0 24 24">
      <path
        d="M3 12v3c0 1.657 3.134 3 7 3s7-1.343 7-3v-3c0 1.657-3.134 3-7 3s-7-1.343-7-3Z"
        fill="currentcolor"
      />
      <path
        d="M3 7v3c0 1.657 3.134 3 7 3s7-1.343 7-3V7c0 1.657-3.134 3-7 3S3 8.657 3 7Z"
        fill="currentcolor"
      />
      <path
        d="M17 5c0 1.657-3.134 3-7 3S3 6.657 3 5s3.134-3 7-3 7 1.343 7 3Z"
        fill="currentcolor"
      />
    </symbol>
    <symbol id="server" viewBox="0 0 24 24">
      <path
        fill-rule="evenodd"
        clip-rule="evenodd"
        d="M2 5a2 2 0 0 1 2-2h12a2 2 0 0 1 2 2v2a2 2 0 0 1-2 2H4a2 2 0 0 1-2-2V5Zm14 1a1 1 0 1 1-2 0 1 1 0 0 1 2 0ZM2 13a2 2 0 0 1 2-2h12a2 2 0 0 1 2 2v2a2 2 0 0 1-2 2H4a2 2 0 0 1-2-2v-2Zm14 1a1 1 0 1 1-2 0 1 1 0 0 1 2 0Z"
        fill="currentcolor"
      />
    </symbol>
    <symbol id="logout" viewBox="0 0 24 24">
      <path
        d="M3 3a1 1 0 0 0-1 1v12a1 1 0 1 0 2 0V4a1 1 0 0 0-1-1ZM13.293 12.293a1 1 0 0 0 1.414 1.414l3-3a1 1 0 0 0 0-1.414l-3-3a1 1 0 1 0-1.414 1.414L14.586 9H7a1 1 0 1 0 0 2h7.586l-1.293 1.293Z"
        fill="currentcolor"
      />
    </symbol>
    <symbol id="wifi" viewBox="0 0 24 24">
      <path
        fill-rule="evenodd"
        clip-rule="evenodd"
        d="M17.778 8.222c-4.296-4.296-11.26-4.296-15.556 0A1 1 0 0 1 .808 6.808c5.076-5.077 13.308-5.077 18.384 0a1 1 0 0 1-1.414 1.414ZM14.95 11.05a7 7 0 0 0-9.9 0 1 1 0 0 1-1.414-1.414 9 9 0 0 1 12.728 0 1 1 0 0 1-1.414 1.414ZM12.12 13.88a3 3 0 0 0-4.242 0 1 1 0 0 1-1.415-1.415 5 5 0 0 1 7.072 0 1 1 0 0 1-1.415 1.415ZM9 16a1 1 0 0 1 1-1h.01a1 1 0 1 1 0 2H10a1 1 0 0 1-1-1Z"
        fill="currentcolor"
      />
    </symbol>
    <symbol id="identification" viewBox="0 0 24 24">
      <path
        d="M10 2a1 1 0 0 0-1 1v1a1 1 0 0 0 2 0V3a1 1 0 0 0-1-1Z"
        fill="currentcolor"
      />
      <path
        fill-rule="evenodd"
        clip-rule="evenodd"
        d="M4 4h3a3 3 0 0 0 6 0h3a2 2 0 0 1 2 2v9a2 2 0 0 1-2 2H4a2 2 0 0 1-2-2V6a2 2 0 0 1 2-2Zm2.5 7a1.5 1.5 0 1 0 0-3 1.5 1.5 0 0 0 0 3Zm2.45 4a2.5 2.5 0 1 0-4.9 0h4.9ZM12 9a1 1 0 1 0 0 2h3a1 1 0 1 0 0-2h-3Zm-1 4a1 1 0 0 1 1-1h2a1 1 0 1 1 0 2h-2a1 1 0 0 1-1-1Z"
        fill="currentcolor"
      />
    </symbol>
    <symbol id="rss" viewBox="0 0 24 24">
      <path
        d="M5 3a1 1 0 0 0 0 2c5.523 0 10 4.477 10 10a1 1 0 1 0 2 0C17 8.373 11.627 3 5 3Z"
        fill="currentcolor"
      />
      <path
        d="M4 9a1 1 0 0 1 1-1 7 7 0 0 1 7 7 1 1 0 1 1-2 0 5 5 0 0 0-5-5 1 1 0 0 1-1-1ZM3 15a2 2 0 1 1 4 0 2 2 0 0 1-4 0Z"
        fill="currentcolor"
      />
    </symbol>
    <symbol id="map" viewBox="0 0 24 24">
      <path
        fill-rule="evenodd"
        clip-rule="evenodd"
        d="m12 1.586-4 4v12.828l4-4V1.586ZM3.707 3.293A1 1 0 0 0 2 4v10a1 1 0 0 0 .293.707L6 18.414V5.586L3.707 3.293ZM17.707 5.293 14 1.586v12.828l2.293 2.293A1 1 0 0 0 18 16V6a1 1 0 0 0-.293-.707Z"
        fill="currentcolor"
      />
    </symbol>
    <symbol id="scissors" viewBox="0 0 24 24">
      <path
        fill-rule="evenodd"
        clip-rule="evenodd"
        d="M5.5 2a3.5 3.5 0 1 0 1.665 6.58L8.585 10l-1.42 1.42a3.5 3.5 0 1 0 1.414 1.414l8.128-8.127a1 1 0 0 0-1.414-1.414L10 8.586l-1.42-1.42A3.5 3.5 0 0 0 5.5 2ZM4 5.5a1.5 1.5 0 1 1 3 0 1.5 1.5 0 0 1-3 0Zm0 9a1.5 1.5 0 1 1 3 0 1.5 1.5 0 0 1-3 0Z"
        fill="currentcolor"
      />
      <path
        d="M12.828 11.414a1 1 0 0 0-1.414 1.414l3.879 3.88a1 1 0 0 0 1.414-1.415l-3.879-3.879Z"
        fill="currentcolor"
      />
    </symbol>
    <symbol id="minus" viewBox="0 0 24 24">
      <path
        fill-rule="evenodd"
        clip-rule="evenodd"
        d="M3 10a1 1 0 0 1 1-1h12a1 1 0 1 1 0 2H4a1 1 0 0 1-1-1Z"
        fill="currentcolor"
      />
    </symbol>
    <symbol id="arrow-sm-up" viewBox="0 0 24 24">
      <path
        fill-rule="evenodd"
        clip-rule="evenodd"
        d="M5.293 9.707a1 1 0 0 1 0-1.414l4-4a1 1 0 0 1 1.414 0l4 4a1 1 0 0 1-1.414 1.414L11 7.414V15a1 1 0 1 1-2 0V7.414L6.707 9.707a1 1 0 0 1-1.414 0Z"
        fill="currentcolor"
      />
    </symbol>
    <symbol id="arrow-sm-right" viewBox="0 0 24 24">
      <path
        fill-rule="evenodd"
        clip-rule="evenodd"
        d="M10.293 5.293a1 1 0 0 1 1.414 0l4 4a1 1 0 0 1 0 1.414l-4 4a1 1 0 0 1-1.414-1.414L12.586 11H5a1 1 0 1 1 0-2h7.586l-2.293-2.293a1 1 0 0 1 0-1.414Z"
        fill="currentcolor"
      />
    </symbol>
    <symbol id="arrow-sm-down" viewBox="0 0 24 24">
      <path
        fill-rule="evenodd"
        clip-rule="evenodd"
        d="M14.707 10.293a1 1 0 0 1 0 1.414l-4 4a1 1 0 0 1-1.414 0l-4-4a1 1 0 1 1 1.414-1.414L9 12.586V5a1 1 0 0 1 2 0v7.586l2.293-2.293a1 1 0 0 1 1.414 0Z"
        fill="currentcolor"
      />
    </symbol>
    <symbol id="arrow-sm-left" viewBox="0 0 24 24">
      <path
        fill-rule="evenodd"
        clip-rule="evenodd"
        d="M9.707 14.707a1 1 0 0 1-1.414 0l-4-4a1 1 0 0 1 0-1.414l4-4a1 1 0 0 1 1.414 1.414L7.414 9H15a1 1 0 1 1 0 2H7.414l2.293 2.293a1 1 0 0 1 0 1.414Z"
        fill="currentcolor"
      />
    </symbol>
      </defs>
    </svg>